<svg width="51" height="51" viewBox="0 0 51 51" fill="none" xmlns="http://www.w3.org/2000/svg">
<path d="M20.2237 33.0608L25.5 29.8605L30.7764 33.0608L29.3739 27.0577L34.0404 23.052L27.9077 22.508L25.5 16.8768L23.0924 22.508L16.9597 23.052L21.6262 27.0577L20.2237 33.0608ZM25.5 46.5715L19.2802 40.375H10.625V31.7199L4.43066 25.5L10.625 19.2802V10.625H19.2802L25.5 4.43066L31.7199 10.625H40.375V19.2802L46.5715 25.5L40.375 31.7199V40.375H31.7199L25.5 46.5715ZM25.5 43.5625L30.8125 38.25H38.25V30.8125L43.5625 25.5L38.25 20.1875V12.75H30.8125L25.5 7.43754L20.1875 12.75H12.75V20.1875L7.43754 25.5L12.75 30.8125V38.25H20.1875L25.5 43.5625Z" fill="#044D5E"/>
</svg>
