<svg width="51" height="51" viewBox="0 0 51 51" fill="none" xmlns="http://www.w3.org/2000/svg">
<path d="M5.1001 11.0113V20.4004C5.10006 22.2002 5.48109 23.9797 6.21811 25.6217C6.95514 27.2637 8.03146 28.7311 9.37628 29.9273C10.7211 31.1235 12.3039 32.0214 14.0207 32.562C15.7374 33.1026 17.5492 33.2736 19.3367 33.0637C19.8246 34.031 20.4111 34.9269 21.0962 35.7514L15.6469 41.2007C15.4146 41.4412 15.2861 41.7633 15.289 42.0976C15.2919 42.4319 15.426 42.7517 15.6624 42.9881C15.8988 43.2245 16.2186 43.3585 16.5529 43.3615C16.8872 43.3644 17.2093 43.2358 17.4497 43.0036L22.8991 37.5542C24.9473 39.2602 27.4392 40.3472 30.083 40.6878C32.7267 41.0284 35.4128 40.6086 37.8265 39.4775C40.2402 38.3463 42.2816 36.5508 43.7115 34.3011C45.1414 32.0515 45.9006 29.441 45.9001 26.7754V16.3459C45.9001 14.3569 44.2936 12.7504 42.3046 12.7504H31.8751C30.6638 12.7504 29.4883 12.9034 28.3688 13.1915C27.1976 11.4829 25.6277 10.0854 23.7949 9.11988C21.9621 8.15439 19.9216 7.65001 17.8501 7.65039H8.461C6.6046 7.65039 5.1001 9.15489 5.1001 11.0113ZM24.7121 35.7412L32.7778 27.6781C33.0172 27.439 33.1518 27.1146 33.1521 26.7763C33.1523 26.438 33.0181 26.1134 32.7791 25.874C32.54 25.6346 32.2156 25.4999 31.8773 25.4997C31.5389 25.4994 31.2144 25.6336 30.9749 25.8727L22.9093 33.9409C21.5596 32.2526 20.7141 30.2175 20.4703 28.0699C20.2265 25.9222 20.5942 23.7494 21.5311 21.8015C22.468 19.8537 23.9359 18.21 25.766 17.0599C27.596 15.9097 29.7136 15.2998 31.8751 15.3004H42.3046C42.4419 15.3004 42.5778 15.3274 42.7047 15.38C42.8315 15.4325 42.9468 15.5095 43.0439 15.6066C43.141 15.7037 43.218 15.8189 43.2705 15.9458C43.3231 16.0726 43.3501 16.2086 43.3501 16.3459V26.7754C43.3503 28.9364 42.7403 31.0535 41.5902 32.8831C40.4402 34.7127 38.7969 36.1803 36.8495 37.1171C34.9021 38.0539 32.7298 38.4218 30.5825 38.1784C28.4353 37.9349 26.4004 37.0901 24.7121 35.7412ZM17.8501 10.2004C21.1039 10.2004 24.0032 11.7253 25.8698 14.0968C23.1337 15.3968 20.8899 17.5449 19.4719 20.2219L14.9278 15.6727C14.8093 15.5541 14.6685 15.4601 14.5136 15.396C14.3588 15.3318 14.1927 15.2988 14.0251 15.2988C13.8575 15.2988 13.6914 15.3318 13.5366 15.396C13.3817 15.4601 13.2409 15.5541 13.1224 15.6727C13.0039 15.7912 12.9098 15.932 12.8457 16.0869C12.7815 16.2417 12.7485 16.4077 12.7485 16.5754C12.7485 16.743 12.7815 16.909 12.8457 17.0639C12.9098 17.2188 13.0039 17.3595 13.1224 17.4781L18.4264 22.7821C18.0428 24.0785 17.8487 25.4235 17.8501 26.7754C17.8501 28.0963 18.0337 29.3764 18.3754 30.5876C16.9935 30.6589 15.6115 30.4482 14.3135 29.9684C13.0156 29.4886 11.8288 28.7498 10.8255 27.7968C9.82218 26.8438 9.02325 25.6966 8.47735 24.4251C7.93145 23.1535 7.64999 21.7842 7.6501 20.4004V11.0113C7.6501 10.5625 8.0122 10.2004 8.461 10.2004H17.8501Z" fill="#044D5E"/>
</svg>
