<svg width="51" height="51" viewBox="0 0 51 51" fill="none" xmlns="http://www.w3.org/2000/svg">
<path fill-rule="evenodd" clip-rule="evenodd" d="M24.257 5.08919C25.0673 4.84136 25.9331 4.84136 26.7433 5.08919L33.0885 7.03994C36.398 8.05668 39.5409 9.55223 42.4173 11.4791C44.657 12.9772 43.5967 16.4686 40.9022 16.4686H10.0982C7.40367 16.4686 6.34329 12.9772 8.58092 11.4791C11.4578 9.5513 14.6015 8.05502 17.9118 7.03782L24.257 5.08919ZM25.8083 8.13644C25.6074 8.07556 25.3929 8.07556 25.192 8.13644L18.8489 10.0872C16.341 10.857 13.9362 11.9296 11.6877 13.2811H39.3127C37.0641 11.9296 34.6593 10.857 32.1514 10.0872L25.8083 8.13644Z" fill="#044D5E"/>
<path d="M9.03125 44.625C9.03125 44.2023 9.19916 43.7969 9.49805 43.498C9.79693 43.1992 10.2023 43.0312 10.625 43.0312H40.375C40.7977 43.0312 41.2031 43.1992 41.502 43.498C41.8008 43.7969 41.9688 44.2023 41.9688 44.625C41.9688 45.0477 41.8008 45.4531 41.502 45.752C41.2031 46.0508 40.7977 46.2188 40.375 46.2188H10.625C10.2023 46.2188 9.79693 46.0508 9.49805 45.752C9.19916 45.4531 9.03125 45.0477 9.03125 44.625ZM13.2812 36.125C13.2812 36.5477 13.4492 36.9531 13.748 37.252C14.0469 37.5508 14.4523 37.7188 14.875 37.7188C15.2977 37.7188 15.7031 37.5508 16.002 37.252C16.3008 36.9531 16.4688 36.5477 16.4688 36.125V23.375C16.4688 22.9523 16.3008 22.5469 16.002 22.248C15.7031 21.9492 15.2977 21.7812 14.875 21.7812C14.4523 21.7812 14.0469 21.9492 13.748 22.248C13.4492 22.5469 13.2812 22.9523 13.2812 23.375V36.125ZM25.5 37.7188C25.0773 37.7188 24.6719 37.5508 24.373 37.252C24.0742 36.9531 23.9062 36.5477 23.9062 36.125V23.375C23.9062 22.9523 24.0742 22.5469 24.373 22.248C24.6719 21.9492 25.0773 21.7812 25.5 21.7812C25.9227 21.7812 26.3281 21.9492 26.627 22.248C26.9258 22.5469 27.0938 22.9523 27.0938 23.375V36.125C27.0938 36.5477 26.9258 36.9531 26.627 37.252C26.3281 37.5508 25.9227 37.7188 25.5 37.7188ZM34.5312 36.125C34.5312 36.5477 34.6992 36.9531 34.998 37.252C35.2969 37.5508 35.7023 37.7188 36.125 37.7188C36.5477 37.7188 36.9531 37.5508 37.252 37.252C37.5508 36.9531 37.7188 36.5477 37.7188 36.125V23.375C37.7188 22.9523 37.5508 22.5469 37.252 22.248C36.9531 21.9492 36.5477 21.7812 36.125 21.7812C35.7023 21.7812 35.2969 21.9492 34.998 22.248C34.6992 22.5469 34.5312 22.9523 34.5312 23.375V36.125Z" fill="#044D5E"/>
</svg>
