<svg width="46" height="53" viewBox="0 0 46 53" fill="none" xmlns="http://www.w3.org/2000/svg">
<g opacity="0.2">
<path fill-rule="evenodd" clip-rule="evenodd" d="M13.1006 14.2887C13.1006 7.66618 18.2967 2.0625 24.9872 2.0625C31.6777 2.0625 36.8738 7.66618 36.8738 14.2887C36.8738 20.9112 31.6777 26.5149 24.9872 26.5149C18.2967 26.5149 13.1006 20.9112 13.1006 14.2887Z" fill="#044D5E"/>
<path fill-rule="evenodd" clip-rule="evenodd" d="M25.0349 22.668C14.0823 22.668 4.61035 31.0599 4.61035 42.2503L4.61714 49.6132C4.61804 50.5121 4.97532 51.3741 5.61066 52.0101C6.246 52.646 7.10757 53.0042 8.00653 53.006H41.9683C42.869 53.006 43.7328 52.6482 44.3697 52.0113C45.0066 51.3744 45.3645 50.5105 45.3645 49.6098V42.2503C45.3645 31.0837 36.008 22.668 25.0349 22.668Z" fill="#044D5E"/>
</g>
<path d="M19.0435 20.7413C24.6705 20.7413 29.232 16.1797 29.232 10.5528C29.232 4.92581 24.6705 0.364258 19.0435 0.364258C13.4165 0.364258 8.85498 4.92581 8.85498 10.5528C8.85498 16.1797 13.4165 20.7413 19.0435 20.7413Z" stroke="#044D5E" stroke-width="0.728772" stroke-linecap="round"/>
<path d="M37.7222 47.9106V41.1182C37.7222 30.5969 29.2487 20.7412 19.0432 20.7412C8.83771 20.7412 0.364258 30.5969 0.364258 41.1182V47.9106" stroke="#044D5E" stroke-width="0.728772" stroke-linecap="round"/>
</svg>
