<svg width="51" height="51" viewBox="0 0 51 51" fill="none" xmlns="http://www.w3.org/2000/svg">
<path d="M25.5 46.75V19.125M31.875 36.125H34C36.6347 36.1271 39.1762 35.1502 41.1312 33.384C43.0863 31.6178 44.3153 29.1881 44.5798 26.5667C44.8444 23.9453 44.1255 21.3192 42.5627 19.1979C41 17.0767 38.7049 15.6118 36.1229 15.0875C36.1229 9.21825 31.875 4.25 25.5 4.25C19.125 4.25 14.8771 9.21825 14.8771 15.0875C12.3032 15.6207 10.0181 17.0887 8.46311 19.208C6.90815 21.3273 6.19363 23.9477 6.45754 26.563C6.72145 29.1783 7.94506 31.603 9.89208 33.369C11.8391 35.1349 14.3714 36.1168 17 36.125H19.125M25.5 31.875L30.8125 26.5625M25.5 27.625L20.1875 22.3125M21.25 46.75H29.75" stroke="#044D5E" stroke-width="2" stroke-linecap="round" stroke-linejoin="round"/>
</svg>
