<svg width="26" height="26" viewBox="0 0 26 26" fill="none" xmlns="http://www.w3.org/2000/svg">
<path d="M0.240723 9.17947C0.240723 6.81654 0.240723 5.63634 0.974907 4.90215C1.70909 4.16797 2.8893 4.16797 5.25222 4.16797H20.2867C22.6496 4.16797 23.8298 4.16797 24.564 4.90215C25.2982 5.63634 25.2982 6.81654 25.2982 9.17947C25.2982 9.76957 25.2982 10.0652 25.1153 10.2494C24.9311 10.4323 24.6342 10.4323 24.0453 10.4323H1.4936C0.903493 10.4323 0.607815 10.4323 0.423642 10.2494C0.240723 10.0652 0.240723 9.76832 0.240723 9.17947Z" fill="#E44F2B"/>
<path fill-rule="evenodd" clip-rule="evenodd" d="M0.240723 20.4557C0.240723 22.8186 0.240723 23.9988 0.974907 24.733C1.70909 25.4672 2.8893 25.4672 5.25222 25.4672H20.2867C22.6496 25.4672 23.8298 25.4672 24.564 24.733C25.2982 23.9988 25.2982 22.8186 25.2982 20.4557V14.1914C25.2982 13.6012 25.2982 13.3056 25.1153 13.1214C24.9311 12.9385 24.6342 12.9385 24.0453 12.9385H1.4936C0.903493 12.9385 0.607815 12.9385 0.423642 13.1214C0.240723 13.3056 0.240723 13.6025 0.240723 14.1914V20.4557ZM6.50509 16.6971C6.50509 16.107 6.50509 15.8113 6.68801 15.6271C6.87219 15.4442 7.16912 15.4442 7.75797 15.4442H10.2637C10.8538 15.4442 11.1495 15.4442 11.3337 15.6271C11.5166 15.8113 11.5166 16.107 11.5166 16.6971C11.5166 17.2872 11.5166 17.5829 11.3337 17.7671C11.1495 17.95 10.8526 17.95 10.2637 17.95H7.75797C7.16786 17.95 6.87219 17.95 6.68801 17.7671C6.50509 17.5829 6.50509 17.2859 6.50509 16.6971ZM6.68801 20.6386C6.50509 20.8228 6.50509 21.1197 6.50509 21.7086C6.50509 22.2974 6.50509 22.5944 6.68801 22.7786C6.87219 22.9615 7.16912 22.9615 7.75797 22.9615H10.2637C10.8538 22.9615 11.1495 22.9615 11.3337 22.7786C11.5166 22.5944 11.5166 22.2974 11.5166 21.7086C11.5166 21.1197 11.5166 20.8228 11.3337 20.6386C11.1495 20.4557 10.8526 20.4557 10.2637 20.4557H7.75797C7.16786 20.4557 6.87219 20.4557 6.68801 20.6386ZM14.0223 16.6971C14.0223 16.107 14.0223 15.8113 14.2053 15.6271C14.3894 15.4442 14.6864 15.4442 15.2752 15.4442H17.781C18.3711 15.4442 18.6667 15.4442 18.8509 15.6271C19.0338 15.8113 19.0338 16.107 19.0338 16.6971C19.0338 17.2872 19.0338 17.5829 18.8509 17.7671C18.6667 17.95 18.3698 17.95 17.781 17.95H15.2752C14.6851 17.95 14.3894 17.95 14.2053 17.7671C14.0223 17.5829 14.0223 17.2859 14.0223 16.6971ZM14.2053 20.6386C14.0223 20.8228 14.0223 21.1197 14.0223 21.7086C14.0223 22.2974 14.0223 22.5944 14.2053 22.7786C14.3894 22.9615 14.6851 22.9615 15.2752 22.9615H17.781C18.3711 22.9615 18.6667 22.9615 18.8509 22.7786C19.0338 22.5944 19.0338 22.2974 19.0338 21.7086C19.0338 21.1197 19.0338 20.8228 18.8509 20.6386C18.6667 20.4557 18.3698 20.4557 17.781 20.4557H15.2752C14.6851 20.4557 14.3894 20.4557 14.2053 20.6386Z" fill="#E44F2B"/>
<path d="M6.50513 1.66211V5.42073M19.0339 1.66211V5.42073" stroke="#E44F2B" stroke-width="2.00461" stroke-linecap="round"/>
</svg>
