<svg width="18" height="21" viewBox="0 0 18 21" fill="none" xmlns="http://www.w3.org/2000/svg">
<path d="M1.13847 0.183594C0.84653 0.183594 0.566551 0.304917 0.360121 0.520875C0.153691 0.736833 0.0377197 1.02973 0.0377197 1.33514V19.3761C0.0377197 19.5797 0.115034 19.775 0.252654 19.9189C0.390274 20.0629 0.576927 20.1438 0.771551 20.1438C0.966175 20.1438 1.15283 20.0629 1.29045 19.9189C1.42807 19.775 1.50538 19.5797 1.50538 19.3761V14.0022H16.9158C17.0521 14.0022 17.1857 13.9625 17.3016 13.8875C17.4176 13.8126 17.5112 13.7053 17.5722 13.5778C17.6331 13.4503 17.6589 13.3075 17.6467 13.1656C17.6345 13.0236 17.5847 12.8879 17.5029 12.7739L13.4301 7.0929L17.5029 1.41191C17.5847 1.29786 17.6345 1.16223 17.6467 1.02024C17.6589 0.878243 17.6331 0.735487 17.5722 0.607968C17.5112 0.480449 17.4176 0.373203 17.3016 0.298249C17.1857 0.223295 17.0521 0.183594 16.9158 0.183594H1.13847Z" fill="#E44F2B"/>
</svg>
