<svg id="Layer_1" data-name="Layer 1" xmlns="http://www.w3.org/2000/svg" viewBox="0 0 48 48"><defs><style>.cls-1{fill:#0fe880;}</style></defs><path class="cls-1" d="M31.16,31.6a7.15,7.15,0,0,0,4.72-1.31,7.28,7.28,0,0,0,3.29-6.17,7.43,7.43,0,0,0-3.86-6.77,6.78,6.78,0,0,0-2.09-.79,1.84,1.84,0,0,1-1.57-1.95A7.51,7.51,0,0,0,28,8a7.61,7.61,0,0,0-11.4,4.92,14.55,14.55,0,0,0-.21,1.85,1.79,1.79,0,0,1-1.52,1.77,7.81,7.81,0,0,0-3.19,1.56,7.45,7.45,0,0,0-2.73,5,7.61,7.61,0,0,0,4.24,7.8,7.09,7.09,0,0,0,3.13.74,14.44,14.44,0,0,1,2.37.06,1.82,1.82,0,0,1,1.5,1.76,1.76,1.76,0,0,1-1.49,1.75c-5,.54-9.83-1.25-12.25-6.26A10.82,10.82,0,0,1,7.91,16.77a10.37,10.37,0,0,1,4.44-3.2.86.86,0,0,0,.59-.75,10.87,10.87,0,0,1,6-8.34,11.38,11.38,0,0,1,13.13,2.2,11.09,11.09,0,0,1,3,6,1.07,1.07,0,0,0,.75.91A10.94,10.94,0,0,1,42.74,23,11.22,11.22,0,0,1,32.35,35.21a14.44,14.44,0,0,1-2.94,0,1.78,1.78,0,0,1,0-3.53C30,31.58,30.56,31.64,31.16,31.6Z"/><path class="cls-1" d="M25.93,25.24c.52-.52,1-1,1.49-1.5a1.79,1.79,0,0,1,2.6,0A1.82,1.82,0,0,1,30,26.27c-1.24,1.26-2.5,2.52-3.76,3.77a1.06,1.06,0,0,0-.37.83c0,3.22,0,6.44,0,9.66,0,.55,0,.56.55.56s.95,0,1.42,0a1.79,1.79,0,0,1,.07,3.58c-2.58,0-5.16,0-7.73,0a1.8,1.8,0,0,1-1.71-1.85,1.78,1.78,0,0,1,1.78-1.73c.45,0,.89,0,1.34,0,.62,0,.63,0,.63-.62V33.82c0-2.24,0-4.47,0-6.7a1.12,1.12,0,0,0-.38-.91c-1.24-1.22-2.46-2.45-3.68-3.68A1.8,1.8,0,1,1,20.64,20l1.24,1.24c.06.06.12.18.23.13s.07-.16.07-.26c0-.83,0-1.66,0-2.49a1.89,1.89,0,0,1,1.48-2,1.78,1.78,0,0,1,2.07,1.31,3.41,3.41,0,0,1,.1.9V24.7A1,1,0,0,0,25.93,25.24Z"/></svg>