<svg width="24" height="25" viewBox="0 0 24 25" fill="none" xmlns="http://www.w3.org/2000/svg">
<path d="M11.1775 20.2711C9.44953 20.2763 7.78269 19.6319 6.50758 18.4657C5.23247 17.2995 4.44223 15.6966 4.29361 13.975C4.14498 12.2535 4.64882 10.5389 5.70519 9.17138C6.76156 7.80388 8.29331 6.88335 9.99662 6.59235C15.6059 5.50986 17.082 4.99814 19.0502 2.55762C20.0343 4.52578 21.0183 6.67108 21.0183 10.4303C21.0183 15.8427 16.3144 20.2711 11.1775 20.2711Z" stroke="black" stroke-width="1.96816" stroke-linecap="round" stroke-linejoin="round"/>
<path d="M2.32104 21.2542C2.32104 18.302 4.1416 15.9795 7.32018 15.3497C9.70166 14.8773 12.1619 13.3815 13.1459 12.3975" stroke="black" stroke-width="1.96816" stroke-linecap="round" stroke-linejoin="round"/>
</svg>
