<svg width="25" height="25" viewBox="0 0 25 25" fill="none" xmlns="http://www.w3.org/2000/svg">
<path d="M20.3634 10.4303C20.3634 16.3348 12.4907 22.2393 12.4907 22.2393C12.4907 22.2393 4.61804 16.3348 4.61804 10.4303C4.61804 8.34232 5.44748 6.33988 6.92389 4.86347C8.4003 3.38706 10.4027 2.55762 12.4907 2.55762C14.5787 2.55762 16.5811 3.38706 18.0575 4.86347C19.5339 6.33988 20.3634 8.34232 20.3634 10.4303Z" stroke="black" stroke-width="1.96816" stroke-linecap="round" stroke-linejoin="round"/>
<path d="M12.4907 13.383C14.1212 13.383 15.4429 12.0612 15.4429 10.4308C15.4429 8.80028 14.1212 7.47852 12.4907 7.47852C10.8602 7.47852 9.53845 8.80028 9.53845 10.4308C9.53845 12.0612 10.8602 13.383 12.4907 13.383Z" stroke="black" stroke-width="1.96816" stroke-linecap="round" stroke-linejoin="round"/>
</svg>
