<svg width="24" height="24" viewBox="0 0 24 24" fill="none" xmlns="http://www.w3.org/2000/svg">
<path d="M7.9 20C9.80858 20.9791 12.0041 21.2443 14.0909 20.7478C16.1777 20.2514 18.0186 19.0259 19.2818 17.2922C20.545 15.5586 21.1474 13.4308 20.9806 11.2922C20.8137 9.15366 19.8886 7.14502 18.3718 5.62824C16.855 4.11146 14.8464 3.1863 12.7078 3.01946C10.5693 2.85263 8.44147 3.45509 6.70782 4.71829C4.97417 5.98149 3.74869 7.82236 3.25222 9.90916C2.75575 11.996 3.02094 14.1915 4 16.1L2 22L7.9 20Z" stroke="#1ECEC9" stroke-width="2" stroke-linecap="round" stroke-linejoin="round"/>
<path d="M14.0002 16.6155L13.1875 16.6015L13.2335 14.0494C13.2346 13.9279 13.2602 13.8078 13.3087 13.6964C13.3571 13.585 13.4276 13.4845 13.5158 13.4009C13.692 13.2326 13.9267 13.1393 14.1703 13.1406L16.6824 13.1887L16.6604 14.0013L14.1583 13.9533C14.1435 13.9527 14.1287 13.9553 14.1149 13.9608C14.1011 13.9663 14.0886 13.9747 14.0782 13.9853C14.058 14.0063 14.0465 14.0342 14.0462 14.0634L14.0002 16.6155Z" fill="#1ECEC9"/>
<path d="M8.18772 14.8759L7.69531 14.2294L10.968 11.7434C11.2696 11.5136 11.5389 11.2443 11.7687 10.9427L14.3128 7.58594L14.9593 8.07634L12.4112 11.4371C12.1368 11.7965 11.8149 12.117 11.4544 12.3899L8.18772 14.8759Z" fill="#1ECEC9"/>
<path d="M10.1401 16.4772L9.4375 16.0769L10.6045 14.0592C11.4446 12.6062 12.6519 11.3996 14.1053 10.5604L16.1851 9.35938L16.5854 10.064L14.5057 11.2649C13.1764 12.0341 12.0722 13.1384 11.303 14.4676L10.1401 16.4772Z" fill="#1ECEC9"/>
<path d="M7.19016 12.4305L7 11.6398L10.5149 10.8031C10.5857 10.7861 10.6503 10.7494 10.7012 10.6974C10.7522 10.6453 10.7875 10.58 10.8031 10.5089L11.6698 7L12.4585 7.20016L11.5918 10.7091C11.5397 10.9238 11.4293 11.1201 11.2729 11.2762C11.1164 11.4323 10.9199 11.5422 10.7051 11.5938L7.19016 12.4305Z" fill="#1ECEC9"/>
<path d="M10.3005 10.6752C10.2513 10.6754 10.2025 10.6666 10.1564 10.6492L7.8125 9.76043L8.10074 9.0018L9.64601 9.58628L9.10957 7.97496L9.8822 7.71875L10.6829 10.1407C10.7046 10.2017 10.7111 10.267 10.7021 10.3311C10.693 10.3952 10.6685 10.4561 10.6307 10.5086C10.5929 10.5612 10.543 10.6038 10.4851 10.6328C10.4273 10.6618 10.3633 10.6763 10.2985 10.6752H10.3005Z" fill="#1ECEC9"/>
</svg>
