<svg width="22" height="22" viewBox="0 0 22 22" fill="none" xmlns="http://www.w3.org/2000/svg">
<path d="M18.2245 10.0217C18.0017 8.4182 17.2578 6.93245 16.1075 5.79331C14.9572 4.65418 13.4643 3.92485 11.8587 3.71768C10.2531 3.5105 8.6239 3.83698 7.22211 4.64681C5.82032 5.45664 4.72367 6.7049 4.1011 8.19931M3.64551 4.55456V8.19931H7.29026M3.64551 11.8441C3.86835 13.4476 4.61222 14.9333 5.76253 16.0724C6.91284 17.2116 8.40578 17.9409 10.0114 18.1481C11.617 18.3553 13.2461 18.0288 14.6479 17.2189C16.0497 16.4091 17.1464 15.1609 17.7689 13.6664M18.2245 17.3112V13.6664H14.5798" stroke="#009966" stroke-width="1.82238" stroke-linecap="round" stroke-linejoin="round"/>
</svg>
