<svg width="26" height="24" viewBox="0 0 26 24" fill="none" xmlns="http://www.w3.org/2000/svg">
<path d="M6.84182 21.0965L12.6401 17.5992L18.4384 21.1425L16.9198 14.5159L22.0278 10.0982L15.3091 9.49997L12.6401 3.24151L9.97105 9.45395L3.25241 10.0522L8.36042 14.5159L6.84182 21.0965ZM12.6401 19.7657L5.95827 23.8005C5.76193 23.8975 5.5797 23.9368 5.41158 23.9184C5.24469 23.8987 5.08209 23.841 4.92379 23.7453C4.76426 23.6472 4.644 23.5085 4.56301 23.3293C4.48201 23.1502 4.47465 22.9544 4.54092 22.7421L6.31905 15.1768L0.437944 10.078C0.272279 9.94297 0.163062 9.7816 0.110295 9.59385C0.0575277 9.40609 0.0691857 9.22632 0.145269 9.05452C0.221352 8.88272 0.322592 8.74159 0.448988 8.63115C0.576612 8.52439 0.748413 8.45199 0.964391 8.41395L8.72488 7.73656L11.751 0.572465C11.8345 0.369986 11.9547 0.223955 12.1118 0.134373C12.2689 0.0447908 12.445 0 12.6401 0C12.8352 0 13.0119 0.0447908 13.1702 0.134373C13.3285 0.223955 13.4482 0.369986 13.5292 0.572465L16.5553 7.73656L24.314 8.41395C24.5312 8.45076 24.7036 8.52377 24.8312 8.63299C24.9588 8.74098 25.0607 8.88149 25.1368 9.05452C25.2116 9.22632 25.2227 9.40609 25.1699 9.59385C25.1171 9.7816 25.0079 9.94297 24.8423 10.078L18.9611 15.1768L20.7393 22.7421C20.808 22.952 20.8012 23.1471 20.719 23.3275C20.6368 23.5079 20.5159 23.6465 20.3564 23.7435C20.1993 23.8417 20.0367 23.8999 19.8686 23.9184C19.7017 23.9368 19.5201 23.8975 19.3238 23.8005L12.6401 19.7657Z" fill="#044D5E"/>
</svg>
