<svg width="28" height="28" viewBox="0 0 28 28" fill="none" xmlns="http://www.w3.org/2000/svg">
<g clip-path="url(#clip0_2177_1548)">
<path fill-rule="evenodd" clip-rule="evenodd" d="M20.5421 2.05057C20.2807 1.63298 19.8957 1.30727 19.4405 1.11876C18.9854 0.930255 18.4828 0.888338 18.0028 0.998846L14.5955 1.78148C14.2464 1.86174 13.8835 1.86174 13.5344 1.78148L10.1271 0.998846C9.64707 0.888338 9.14449 0.930255 8.68936 1.11876C8.23423 1.30727 7.84919 1.63298 7.58785 2.05057L5.73075 5.01435C5.54125 5.31754 5.28543 5.57337 4.98223 5.76477L2.01845 7.62186C1.60159 7.88298 1.27635 8.26739 1.08788 8.72174C0.899416 9.1761 0.857072 9.67785 0.966727 10.1574L1.74936 13.5684C1.82933 13.9169 1.82933 14.2791 1.74936 14.6277L0.966727 18.0368C0.856646 18.5166 0.898777 19.0187 1.08726 19.4735C1.27575 19.9282 1.60123 20.3129 2.01845 20.5742L4.98223 22.4313C5.28543 22.6208 5.54125 22.8766 5.73265 23.1798L7.58974 26.1436C8.12413 26.9982 9.14364 27.4208 10.1271 27.1953L13.5344 26.4127C13.8835 26.3324 14.2464 26.3324 14.5955 26.4127L18.0047 27.1953C18.4844 27.3054 18.9866 27.2632 19.4414 27.0748C19.8961 26.8863 20.2808 26.5608 20.5421 26.1436L22.3991 23.1798C22.5886 22.8766 22.8445 22.6208 23.1477 22.4313L26.1133 20.5742C26.5306 20.3126 26.8559 19.9274 27.0441 19.4723C27.2322 19.0172 27.2739 18.5147 27.1632 18.0349L26.3824 14.6277C26.3022 14.2785 26.3022 13.9157 26.3824 13.5665L27.1651 10.1574C27.2753 9.67777 27.2335 9.17575 27.0453 8.72102C26.8572 8.2663 26.5321 7.88146 26.1152 7.61997L23.1496 5.76287C22.8468 5.57302 22.5909 5.31712 22.401 5.01435L20.5421 2.05057ZM19.5889 9.87123C19.7061 9.6557 19.7351 9.40311 19.6699 9.16661C19.6046 8.93011 19.4502 8.72813 19.2391 8.60317C19.028 8.47822 18.7766 8.44002 18.5379 8.49663C18.2992 8.55323 18.0917 8.70022 17.9592 8.90667L13.0037 17.2939L10.0115 14.4287C9.92278 14.3375 9.81657 14.2652 9.69924 14.216C9.58191 14.1668 9.45587 14.1417 9.32864 14.1423C9.20141 14.1428 9.0756 14.169 8.9587 14.2192C8.84181 14.2695 8.73623 14.3427 8.64826 14.4346C8.56029 14.5266 8.49173 14.6352 8.44667 14.7542C8.40162 14.8732 8.38099 15.0001 8.38601 15.1272C8.39104 15.2543 8.42162 15.3791 8.47592 15.4942C8.53023 15.6093 8.60715 15.7122 8.70211 15.7969L12.5565 19.4902C12.6597 19.5889 12.7838 19.6629 12.9196 19.7069C13.0554 19.7508 13.1994 19.7635 13.3408 19.744C13.4822 19.7245 13.6173 19.6733 13.7362 19.5943C13.855 19.5152 13.9544 19.4103 14.027 19.2875L19.5889 9.87123Z" fill="#1ECEC9"/>
</g>
<defs>
<clipPath id="clip0_2177_1548">
<rect width="26.5702" height="26.5702" fill="white" transform="translate(0.554199 0.686523)"/>
</clipPath>
</defs>
</svg>
