<svg width="31" height="30" viewBox="0 0 31 30" fill="none" xmlns="http://www.w3.org/2000/svg">
<path d="M14.6362 27.8102C12.0661 27.818 9.58688 26.8595 7.69033 25.1249C5.79379 23.3903 4.61843 21.0063 4.39736 18.4457C4.1763 15.8851 4.92569 13.3349 6.49689 11.3009C8.0681 9.26695 10.3464 7.89778 12.8798 7.46497C21.2228 5.85492 23.4183 5.0938 26.3457 1.46387C27.8094 4.39124 29.2731 7.58207 29.2731 13.1733C29.2731 21.2236 22.2767 27.8102 14.6362 27.8102Z" stroke="#044D5E" stroke-width="2.92737" stroke-linecap="round" stroke-linejoin="round"/>
<path d="M1.46387 29.2747C1.46387 24.8837 4.17168 21.4294 8.89938 20.4926C12.4415 19.79 16.1007 17.5652 17.5644 16.1016" stroke="#044D5E" stroke-width="2.92737" stroke-linecap="round" stroke-linejoin="round"/>
</svg>
