<svg width="40" height="30" viewBox="0 0 40 30" fill="none" xmlns="http://www.w3.org/2000/svg">
<path d="M13.2139 18.7665C17.0196 18.7665 20.2966 19.4373 22.6619 21.0425C25.1118 22.7062 26.4279 25.2696 26.4279 28.6156C26.4066 28.9541 26.2582 29.2716 26.0127 29.5037C25.7672 29.7358 25.4432 29.865 25.1065 29.865C24.7698 29.865 24.4458 29.7358 24.2003 29.5037C23.9548 29.2716 23.8064 28.9541 23.7851 28.6156C23.7851 26.0655 22.839 24.3672 21.1872 23.2465C19.4483 22.07 16.7817 21.4284 13.2139 21.4284C9.64618 21.4284 6.97696 22.07 5.24065 23.2492C3.58891 24.3699 2.64279 26.0682 2.64279 28.6183C2.62153 28.9567 2.47306 29.2743 2.22759 29.5064C1.98211 29.7385 1.65808 29.8677 1.32139 29.8677C0.984712 29.8677 0.660675 29.7385 0.415203 29.5064C0.16973 29.2743 0.0212618 28.9567 0 28.6183C0 25.2696 1.31347 22.7062 3.76333 21.0425C6.12863 19.4373 9.40833 18.7665 13.2139 18.7665ZM26.3618 18.7665C30.1648 18.7665 33.4445 19.4373 35.8098 21.0425C38.2597 22.7062 39.5758 25.2696 39.5758 28.6183C39.5758 28.9713 39.4365 29.3098 39.1887 29.5594C38.9409 29.809 38.6048 29.9492 38.2544 29.9492C37.9039 29.9492 37.5678 29.809 37.32 29.5594C37.0722 29.3098 36.933 28.9713 36.933 28.6183C36.933 26.0682 35.9869 24.3699 34.3325 23.2492C32.9635 22.3202 31.0211 21.7319 28.513 21.5189C27.8883 20.4911 27.1132 19.5641 26.2138 18.7692L26.3618 18.7665ZM13.2139 3.87149e-05C15.3855 0.0551571 17.4497 0.962767 18.9663 2.52926C20.4828 4.09575 21.3316 6.1971 21.3316 8.38507C21.3316 10.573 20.4828 12.6744 18.9663 14.2409C17.4497 15.8074 15.3855 16.715 13.2139 16.7701C11.0061 16.7701 8.88863 15.8867 7.32743 14.3142C5.76623 12.7417 4.88916 10.6089 4.88916 8.38507C4.88916 6.16122 5.76623 4.02845 7.32743 2.45596C8.88863 0.883458 11.0061 3.87149e-05 13.2139 3.87149e-05ZM26.3618 3.87149e-05C28.5697 3.87149e-05 30.6871 0.883458 32.2483 2.45596C33.8095 4.02845 34.6866 6.16122 34.6866 8.38507C34.6866 10.6089 33.8095 12.7417 32.2483 14.3142C30.6871 15.8867 28.5697 16.7701 26.3618 16.7701C24.977 16.7701 23.6767 16.424 22.5298 15.8225C23.0828 15.1219 23.5562 14.3612 23.941 13.5545C24.8071 13.9672 25.7626 14.1526 26.7189 14.0934C27.6751 14.0343 28.601 13.7326 29.4105 13.2164C30.2199 12.7002 30.8866 11.9862 31.3486 11.1408C31.8106 10.2954 32.0528 9.34606 32.0528 8.38107C32.0528 7.41608 31.8106 6.46676 31.3486 5.62138C30.8866 4.77599 30.2199 4.06198 29.4105 3.54575C28.601 3.02952 27.6751 2.72782 26.7189 2.66871C25.7626 2.60959 24.8071 2.79499 23.941 3.20764C23.555 2.40266 23.0808 1.64372 22.5271 0.945018C23.709 0.320319 25.0245 -0.00407892 26.3592 3.87149e-05M13.2139 2.66195C11.737 2.70733 10.3356 3.33019 9.3068 4.39853C8.278 5.46687 7.70262 6.89672 7.70262 8.38507C7.70262 9.87341 8.278 11.3033 9.3068 12.3716C10.3356 13.4399 11.737 14.0628 13.2139 14.1082C14.7209 14.1082 16.1661 13.5052 17.2317 12.4319C18.2973 11.3586 18.8959 9.90293 18.8959 8.38507C18.8959 6.8672 18.2973 5.4115 17.2317 4.33821C16.1661 3.26492 14.7209 2.66195 13.2139 2.66195Z" fill="#044D5E"/>
</svg>
