<svg width="34" height="34" viewBox="0 0 34 34" fill="none" xmlns="http://www.w3.org/2000/svg">
<path d="M30.7063 16.5964C31.5673 16.5964 32.2739 15.896 32.1881 15.0396C31.8285 11.4585 30.2415 8.11187 27.6963 5.56715C25.151 3.02243 21.804 1.43621 18.2228 1.07738C17.3648 0.991592 16.666 1.69821 16.666 2.55925V15.0381C16.666 15.4518 16.8304 15.8485 17.1229 16.1411C17.4154 16.4336 17.8122 16.5979 18.2259 16.5979L30.7063 16.5964Z" stroke="#044D5E" stroke-width="2.13923" stroke-linecap="round" stroke-linejoin="round"/>
<path d="M31.0348 22.6637C30.0424 25.0105 28.4903 27.0784 26.5141 28.6868C24.5379 30.2951 22.1979 31.3949 19.6984 31.8899C17.199 32.3849 14.6164 32.2602 12.1764 31.5265C9.73632 30.7928 7.51314 29.4726 5.70121 27.6812C3.88927 25.8899 2.54374 23.6819 1.78225 21.2504C1.02076 18.8189 0.8665 16.2379 1.33295 13.733C1.79941 11.2281 2.87237 8.87556 4.45804 6.88113C6.04371 4.8867 8.09381 3.31107 10.4291 2.29199" stroke="#044D5E" stroke-width="2.13923" stroke-linecap="round" stroke-linejoin="round"/>
</svg>
