<svg width="29" height="29" viewBox="0 0 29 29" fill="none" xmlns="http://www.w3.org/2000/svg">
<path fill-rule="evenodd" clip-rule="evenodd" d="M5.67278 0C6.0831 0 6.47662 0.163 6.76676 0.453142C7.0569 0.743283 7.2199 1.1368 7.2199 1.54712V21.6597H27.3325C27.7428 21.6597 28.1363 21.8227 28.4265 22.1129C28.7166 22.403 28.8796 22.7965 28.8796 23.2068C28.8796 23.6172 28.7166 24.0107 28.4265 24.3008C28.1363 24.591 27.7428 24.754 27.3325 24.754H7.2199V27.3325C7.2199 27.7428 7.0569 28.1363 6.76676 28.4265C6.47662 28.7166 6.0831 28.8796 5.67278 28.8796C5.26246 28.8796 4.86894 28.7166 4.5788 28.4265C4.28866 28.1363 4.12566 27.7428 4.12566 27.3325V24.754H1.54712C1.1368 24.754 0.743283 24.591 0.453142 24.3008C0.163 24.0107 0 23.6172 0 23.2068C0 22.7965 0.163 22.403 0.453142 22.1129C0.743283 21.8227 1.1368 21.6597 1.54712 21.6597H4.12566V1.54712C4.12566 1.1368 4.28866 0.743283 4.5788 0.453142C4.86894 0.163 5.26246 0 5.67278 0ZM25.7854 9.79844C25.7854 9.38812 25.6224 8.9946 25.3322 8.70446C25.0421 8.41432 24.6486 8.25132 24.2382 8.25132C23.8279 8.25132 23.4344 8.41432 23.1443 8.70446C22.8541 8.9946 22.6911 9.38812 22.6911 9.79844V17.0183C22.6911 17.4287 22.8541 17.8222 23.1443 18.1123C23.4344 18.4025 23.8279 18.5655 24.2382 18.5655C24.6486 18.5655 25.0421 18.4025 25.3322 18.1123C25.6224 17.8222 25.7854 17.4287 25.7854 17.0183V9.79844ZM18.0498 4.12566C18.4601 4.12566 18.8536 4.28866 19.1437 4.5788C19.4339 4.86894 19.5969 5.26246 19.5969 5.67278V17.0183C19.5969 17.4287 19.4339 17.8222 19.1437 18.1123C18.8536 18.4025 18.4601 18.5655 18.0498 18.5655C17.6394 18.5655 17.2459 18.4025 16.9558 18.1123C16.6656 17.8222 16.5026 17.4287 16.5026 17.0183V5.67278C16.5026 5.26246 16.6656 4.86894 16.9558 4.5788C17.2459 4.28866 17.6394 4.12566 18.0498 4.12566ZM13.4084 13.9241C13.4084 13.5138 13.2454 13.1203 12.9553 12.8301C12.6651 12.54 12.2716 12.377 11.8613 12.377C11.4509 12.377 11.0574 12.54 10.7673 12.8301C10.4771 13.1203 10.3141 13.5138 10.3141 13.9241V17.0183C10.3141 17.4287 10.4771 17.8222 10.7673 18.1123C11.0574 18.4025 11.4509 18.5655 11.8613 18.5655C12.2716 18.5655 12.6651 18.4025 12.9553 18.1123C13.2454 17.8222 13.4084 17.4287 13.4084 17.0183V13.9241Z" fill="#044D5E"/>
</svg>
