<svg width="38" height="33" viewBox="0 0 38 33" fill="none" xmlns="http://www.w3.org/2000/svg">
<path d="M18.6848 5.15494L17.7463 6.05877C17.8679 6.18493 18.0136 6.28528 18.1749 6.35383C18.3362 6.42237 18.5096 6.4577 18.6848 6.4577C18.8601 6.4577 19.0335 6.42237 19.1948 6.35383C19.356 6.28528 19.5018 6.18493 19.6234 6.05877L18.6848 5.15494ZM14.2109 27.4412C11.5759 25.3641 8.69584 23.3357 6.4102 20.7633C4.1715 18.2395 2.60719 15.2969 2.60719 11.4765H0C0 16.1103 1.92932 19.6457 4.46177 22.4945C6.94728 25.2929 10.1176 27.535 12.5962 29.4887L14.2109 27.4412ZM2.60719 11.4765C2.60719 7.73953 4.71901 4.60396 7.60256 3.28472C10.4044 2.00372 14.1692 2.34266 17.7463 6.05877L19.6234 4.25285C15.3824 -0.156768 10.4531 -0.885042 6.51797 0.913917C2.66976 2.67464 0 6.76271 0 11.4765H2.60719ZM12.5962 29.4887C13.4878 30.1909 14.4438 30.9383 15.412 31.5049C16.3801 32.0715 17.4855 32.5304 18.6848 32.5304V29.9232C18.146 29.9232 17.5133 29.7146 16.7277 29.254C15.9403 28.7952 15.1252 28.1625 14.2109 27.4412L12.5962 29.4887ZM24.7735 29.4887C27.2521 27.5333 30.4224 25.2946 32.9079 22.4945C35.4404 19.6439 37.3697 16.1103 37.3697 11.4765H34.7625C34.7625 15.2969 33.1982 18.2395 30.9595 20.7633C28.6738 23.3357 25.7938 25.3641 23.1588 27.4412L24.7735 29.4887ZM37.3697 11.4765C37.3697 6.76271 34.7017 2.67464 30.8517 0.913917C26.9166 -0.885042 21.9908 -0.156768 17.7463 4.25112L19.6234 6.05877C23.2005 2.34439 26.9653 2.00372 29.7671 3.28472C32.6507 4.60396 34.7625 7.73779 34.7625 11.4765H37.3697ZM23.1588 27.4412C22.2445 28.1625 21.4293 28.7952 20.642 29.254C19.8546 29.7129 19.2237 29.9232 18.6848 29.9232V32.5304C19.8841 32.5304 20.9896 32.0698 21.9577 31.5049C22.9276 30.9383 23.8818 30.1909 24.7735 29.4887L23.1588 27.4412Z" fill="#044D5E"/>
</svg>
