<svg width="16" height="20" viewBox="0 0 16 20" fill="none" xmlns="http://www.w3.org/2000/svg">
<path d="M7.80631 7.80631H7.81498M7.80631 11.2757H7.81498M7.80631 4.33691H7.81498M11.2757 7.80631H11.2844M11.2757 11.2757H11.2844M11.2757 4.33691H11.2844M4.33691 7.80631H4.34559M4.33691 11.2757H4.34559M4.33691 4.33691H4.34559M5.20426 18.2145V15.6124C5.20426 15.3824 5.29564 15.1618 5.4583 14.9991C5.62096 14.8365 5.84157 14.7451 6.07161 14.7451H9.541C9.77104 14.7451 9.99165 14.8365 10.1543 14.9991C10.317 15.1618 10.4083 15.3824 10.4083 15.6124V18.2145" stroke="#155DFC" stroke-width="1.7347" stroke-linecap="round" stroke-linejoin="round"/>
<path d="M13.0101 0.867188H2.60188C1.64384 0.867188 0.867188 1.64384 0.867188 2.60188V16.4794C0.867188 17.4375 1.64384 18.2141 2.60188 18.2141H13.0101C13.9681 18.2141 14.7448 17.4375 14.7448 16.4794V2.60188C14.7448 1.64384 13.9681 0.867188 13.0101 0.867188Z" stroke="#155DFC" stroke-width="1.7347" stroke-linecap="round" stroke-linejoin="round"/>
</svg>
