<svg width="38" height="33" viewBox="0 0 38 33" fill="none" xmlns="http://www.w3.org/2000/svg">
<path d="M18.7357 8.74332C19.9848 3.8127 24.7023 1.29509 34.9733 1.24903C35.1375 1.24841 35.3002 1.2803 35.4521 1.34285C35.6039 1.4054 35.7418 1.49738 35.8579 1.61349C35.974 1.7296 36.066 1.86754 36.1286 2.01936C36.1911 2.17118 36.223 2.33388 36.2224 2.49808V24.981C36.2224 25.3122 36.0908 25.6299 35.8566 25.8642C35.6223 26.0984 35.3046 26.23 34.9733 26.23C24.981 26.23 21.1206 28.2449 18.7357 31.2262M18.7357 8.74332C17.4867 3.8127 12.7692 1.29509 2.49808 1.24903C2.33388 1.24841 2.17118 1.2803 2.01936 1.34285C1.86754 1.4054 1.7296 1.49738 1.61349 1.61349C1.49738 1.7296 1.4054 1.86754 1.34285 2.01936C1.2803 2.17118 1.24841 2.33388 1.24903 2.49808V24.8303C1.24903 25.6016 1.72679 26.23 2.49808 26.23C12.4905 26.23 16.3649 28.2597 18.7357 31.2262M18.7357 8.74332V31.2262" stroke="#044D5E" stroke-width="2.4981" stroke-linecap="round" stroke-linejoin="round"/>
</svg>
