<svg width="37" height="35" viewBox="0 0 37 35" fill="none" xmlns="http://www.w3.org/2000/svg">
<path d="M6.11634 30.8769L8.94931 28.6109L8.9679 28.596C9.55903 28.122 9.85831 27.8841 10.1911 27.7149C10.4897 27.5625 10.8045 27.4522 11.1354 27.384C11.5053 27.3078 11.8901 27.3078 12.6634 27.3078H28.8005C30.8788 27.3078 31.9197 27.3078 32.7135 26.9026C33.413 26.5461 33.9817 25.9774 34.3382 25.2779C34.7434 24.4823 34.7434 23.4413 34.7434 21.3668V7.22611C34.7434 5.14786 34.7434 4.10687 34.3382 3.31312C33.9813 2.61332 33.4118 2.04456 32.7116 1.68844C31.9179 1.2832 30.8769 1.2832 28.7949 1.2832H7.23168C5.14972 1.2832 4.10873 1.2832 3.31312 1.68844C2.6136 2.04488 2.04488 2.6136 1.68844 3.31312C1.2832 4.10873 1.2832 5.14972 1.2832 7.23168V28.5551C1.2832 30.5367 1.2832 31.5275 1.68844 32.035C1.8627 32.2538 2.08408 32.4304 2.3361 32.5518C2.58811 32.6731 2.86426 32.736 3.14396 32.7358C3.79458 32.7358 4.56788 32.1149 6.11634 30.8769Z" stroke="#044D5E" stroke-width="2.56708" stroke-linecap="round" stroke-linejoin="round"/>
</svg>
