<svg width="24" height="18" viewBox="0 0 24 18" fill="none" xmlns="http://www.w3.org/2000/svg">
<path d="M7.83917 11.0532C10.0968 11.0532 12.041 11.4483 13.4442 12.3937C14.8976 13.3736 15.6783 14.8835 15.6783 16.8542C15.6657 17.0536 15.5776 17.2406 15.432 17.3773C15.2864 17.514 15.0942 17.5901 14.8944 17.5901C14.6947 17.5901 14.5024 17.514 14.3568 17.3773C14.2112 17.2406 14.1231 17.0536 14.1105 16.8542C14.1105 15.3522 13.5492 14.352 12.5693 13.6919C11.5377 12.9989 9.95574 12.6211 7.83917 12.6211C5.72259 12.6211 4.13908 12.9989 3.10901 13.6935C2.12912 14.3535 1.56783 15.3538 1.56783 16.8558C1.55522 17.0551 1.46714 17.2422 1.32151 17.3789C1.17589 17.5156 0.983653 17.5917 0.783917 17.5917C0.58418 17.5917 0.391945 17.5156 0.246319 17.3789C0.100693 17.2422 0.0126135 17.0551 0 16.8558C0 14.8835 0.779213 13.3736 2.23259 12.3937C3.63581 11.4483 5.58149 11.0532 7.83917 11.0532ZM15.6391 11.0532C17.8953 11.0532 19.8409 11.4483 21.2441 12.3937C22.6975 13.3736 23.4783 14.8835 23.4783 16.8558C23.4783 17.0637 23.3957 17.2631 23.2487 17.4101C23.1017 17.5571 22.9023 17.6397 22.6944 17.6397C22.4865 17.6397 22.2871 17.5571 22.1401 17.4101C21.9931 17.2631 21.9105 17.0637 21.9105 16.8558C21.9105 15.3538 21.3492 14.3535 20.3677 13.6935C19.5556 13.1463 18.4032 12.7998 16.9154 12.6744C16.5447 12.069 16.0849 11.523 15.5513 11.0548L15.6391 11.0532ZM7.83917 2.28026e-05C9.12744 0.0324868 10.352 0.567058 11.2517 1.4897C12.1514 2.41234 12.655 3.65002 12.655 4.9387C12.655 6.22738 12.1514 7.46505 11.2517 8.3877C10.352 9.31034 9.12744 9.84491 7.83917 9.87737C6.52935 9.87737 5.27318 9.35705 4.347 8.43087C3.42081 7.50469 2.90049 6.24852 2.90049 4.9387C2.90049 3.62888 3.42081 2.37271 4.347 1.44653C5.27318 0.520346 6.52935 2.28026e-05 7.83917 2.28026e-05ZM15.6391 2.28026e-05C16.949 2.28026e-05 18.2051 0.520346 19.1313 1.44653C20.0575 2.37271 20.5778 3.62888 20.5778 4.9387C20.5778 6.24852 20.0575 7.50469 19.1313 8.43087C18.2051 9.35705 16.949 9.87737 15.6391 9.87737C14.8176 9.87737 14.0462 9.67355 13.3658 9.31922C13.6939 8.90664 13.9747 8.45857 14.203 7.98343C14.7168 8.22648 15.2837 8.33567 15.851 8.30086C16.4183 8.26604 16.9676 8.08834 17.4478 7.78429C17.9279 7.48023 18.3235 7.0597 18.5975 6.56177C18.8716 6.06385 19.0153 5.50471 19.0153 4.93635C19.0153 4.36798 18.8716 3.80884 18.5975 3.31092C18.3235 2.813 17.9279 2.39246 17.4478 2.0884C16.9676 1.78435 16.4183 1.60665 15.851 1.57184C15.2837 1.53702 14.7168 1.64621 14.203 1.88926C13.974 1.41513 13.6927 0.968132 13.3642 0.556603C14.0653 0.188664 14.8458 -0.00240243 15.6376 2.28026e-05M7.83917 1.56786C6.96296 1.59458 6.13159 1.96144 5.52125 2.59068C4.91092 3.21992 4.56958 4.06208 4.56958 4.9387C4.56958 5.81531 4.91092 6.65748 5.52125 7.28672C6.13159 7.91596 6.96296 8.28281 7.83917 8.30954C8.73317 8.30954 9.59056 7.9544 10.2227 7.32224C10.8549 6.69009 11.21 5.8327 11.21 4.9387C11.21 4.0447 10.8549 3.18731 10.2227 2.55515C9.59056 1.923 8.73317 1.56786 7.83917 1.56786Z" fill="#155DFC"/>
</svg>
