<svg width="22" height="19" viewBox="0 0 22 19" fill="none" xmlns="http://www.w3.org/2000/svg">
<path fill-rule="evenodd" clip-rule="evenodd" d="M4.28606 1.85237C2.66042 2.59513 1.46984 4.36287 1.46984 6.47062C1.46984 8.62345 2.35175 10.2834 3.61386 11.7062C4.65549 12.8782 5.91563 13.8502 7.14442 14.7968C7.43708 15.0222 7.72615 15.2469 8.01163 15.471C8.52705 15.8776 8.98662 16.2333 9.43052 16.493C9.87441 16.7527 10.2301 16.8703 10.5339 16.8703C10.8376 16.8703 11.1943 16.7527 11.6372 16.493C12.0811 16.2333 12.5407 15.8776 13.0561 15.471C13.3416 15.2462 13.6307 15.0218 13.9233 14.7978C15.1521 13.8492 16.4123 12.8782 17.4539 11.7062C18.717 10.2834 19.5979 8.62345 19.5979 6.47062C19.5979 4.36385 18.4073 2.59513 16.7817 1.85237C15.2021 1.13019 13.0796 1.32127 11.063 3.41727C10.9945 3.48839 10.9123 3.54497 10.8214 3.58361C10.7304 3.62226 10.6327 3.64217 10.5339 3.64217C10.4351 3.64217 10.3373 3.62226 10.2464 3.58361C10.1555 3.54497 10.0733 3.48839 10.0047 3.41727C7.98811 1.32127 5.86566 1.13019 4.28606 1.85237ZM10.5339 1.88765C8.26836 -0.140735 5.73141 -0.424905 3.67461 0.514815C1.50512 1.50941 0 3.81412 0 6.4716C0 9.08302 1.08768 11.0761 2.51539 12.6832C3.65795 13.9698 5.05626 15.0467 6.29191 15.9972C6.57281 16.2127 6.84261 16.4224 7.1013 16.6263C7.60399 17.0221 8.14293 17.4435 8.68874 17.7629C9.23454 18.0824 9.85775 18.3411 10.5339 18.3411C11.21 18.3411 11.8332 18.0814 12.379 17.7629C12.9258 17.4435 13.4638 17.0221 13.9665 16.6263C14.2251 16.4224 14.4949 16.2127 14.7758 15.9972C16.0105 15.0467 17.4098 13.9688 18.5524 12.6832C19.9801 11.0761 21.0678 9.08302 21.0678 6.4716C21.0678 3.81412 19.5636 1.50941 17.3932 0.516775C15.3363 -0.423925 12.7994 -0.139755 10.5339 1.88765Z" fill="#155DFC"/>
</svg>
