<svg width="25" height="21" viewBox="0 0 25 21" fill="none" xmlns="http://www.w3.org/2000/svg">
<path d="M22.2706 0.507812H1.85589C1.36367 0.507813 0.891622 0.703343 0.543576 1.05139C0.19553 1.39943 0 1.87149 0 2.3637V19.0667C0 19.5589 0.19553 20.0309 0.543576 20.379C0.891622 20.727 1.36367 20.9226 1.85589 20.9226H22.2706C22.7628 20.9226 23.2349 20.727 23.5829 20.379C23.931 20.0309 24.1265 19.5589 24.1265 19.0667V2.3637C24.1265 1.87149 23.931 1.39943 23.5829 1.05139C23.2349 0.703343 22.7628 0.507813 22.2706 0.507812ZM1.85589 13.499H3.71177C3.95788 13.499 4.1939 13.4012 4.36793 13.2272C4.54195 13.0532 4.63972 12.8172 4.63972 12.5711C4.63972 12.325 4.54195 12.0889 4.36793 11.9149C4.1939 11.7409 3.95788 11.6431 3.71177 11.6431H1.85589V9.78724H3.71177C3.95788 9.78724 4.1939 9.68948 4.36793 9.51545C4.54195 9.34143 4.63972 9.1054 4.63972 8.8593C4.63972 8.61319 4.54195 8.37717 4.36793 8.20314C4.1939 8.02912 3.95788 7.93136 3.71177 7.93136H1.85589V6.07547H3.71177C3.95788 6.07547 4.1939 5.9777 4.36793 5.80368C4.54195 5.62966 4.63972 5.39363 4.63972 5.14753C4.63972 4.90142 4.54195 4.6654 4.36793 4.49137C4.1939 4.31735 3.95788 4.21958 3.71177 4.21958H1.85589V2.3637H6.4956V19.0667H1.85589V13.499ZM22.2706 19.0667H8.35149V2.3637H22.2706V19.0667Z" fill="#044D5E"/>
</svg>
