<svg width="19" height="11" viewBox="0 0 19 11" fill="none" xmlns="http://www.w3.org/2000/svg">
<path d="M5.85306 3.41127L6.4097 2.85463L5.80016 2.24508L5.2483 2.90731L5.85306 3.41127ZM10.5763 8.13454L10.0197 8.69118L10.5763 9.24782L11.133 8.69118L10.5763 8.13454ZM18.7108 0.787231C18.7108 0.352467 18.3584 2.02656e-05 17.9236 2.02656e-05L10.8387 1.98483e-05C10.404 1.98483e-05 10.0515 0.352466 10.0515 0.787231C10.0515 1.222 10.404 1.57444 10.8387 1.57444L17.1364 1.57444V7.87213C17.1364 8.3069 17.4889 8.65934 17.9236 8.65934C18.3584 8.65934 18.7108 8.3069 18.7108 7.87213L18.7108 0.787231ZM0.60498 9.70896L1.20973 10.2129L6.45781 3.91523L5.85306 3.41127L5.2483 2.90731L0.000228107 9.205L0.60498 9.70896ZM5.85306 3.41127L5.29641 3.96791L10.0197 8.69118L10.5763 8.13454L11.133 7.57789L6.4097 2.85463L5.85306 3.41127ZM10.5763 8.13454L11.133 8.69118L18.4803 1.34387L17.9236 0.787231L17.367 0.230589L10.0197 7.57789L10.5763 8.13454Z" fill="#4ABEA6"/>
</svg>
