<svg width="21" height="23" viewBox="0 0 21 23" fill="none" xmlns="http://www.w3.org/2000/svg">
<path d="M0.791016 3.95644H6.52C6.8673 3.95649 7.20926 3.87082 7.51551 3.70701C7.82177 3.54321 8.08286 3.30635 8.27562 3.01744L9.13233 1.73026C9.32508 1.44135 9.58617 1.20449 9.89243 1.04069C10.1987 0.876884 10.5406 0.791208 10.8879 0.79126H15.6231C16.0661 0.791153 16.498 0.930505 16.8574 1.18956C17.2168 1.44862 17.4856 1.81423 17.6256 2.23458L18.1995 3.95644M19.7821 3.95644H6.06632" stroke="white" stroke-width="1.58259" stroke-linecap="round"/>
<path d="M18.1999 3.9563L17.6724 10.8142M2.37402 3.9563L3.01234 15.0724C3.17481 17.7839 3.25711 19.1407 3.93446 20.1156C4.26891 20.5988 4.70043 21.005 5.20053 21.311C5.81458 21.6866 6.55523 21.8343 7.64933 21.8923" stroke="white" stroke-width="1.58259" stroke-linecap="round"/>
<path d="M9.23242 15.0326L10.431 16.5794C10.6487 15.7667 11.1043 15.0377 11.7393 14.4858C12.3744 13.934 13.1599 13.5846 13.9949 13.4824C14.83 13.3802 15.6766 13.53 16.4259 13.9124C17.1753 14.2949 17.7932 14.8926 18.2004 15.6288M19.783 20.3079L18.5845 18.7633C18.3685 19.5697 17.9183 20.2938 17.2907 20.8443C16.6632 21.3947 15.8865 21.7466 15.0589 21.8556C14.2313 21.9646 13.39 21.8257 12.6413 21.4565C11.8927 21.0873 11.2703 20.5044 10.853 19.7815" stroke="white" stroke-width="1.58259" stroke-linecap="round" stroke-linejoin="round"/>
</svg>
