<svg width="17" height="17" viewBox="0 0 17 17" fill="none" xmlns="http://www.w3.org/2000/svg">
<path d="M15.4902 7.27584C15.2673 5.67235 14.5234 4.1866 13.3731 3.04746C12.2228 1.90833 10.7299 1.179 9.12429 0.971828C7.5187 0.764654 5.88952 1.09113 4.48773 1.90096C3.08594 2.71079 1.9893 3.95905 1.36673 5.45346M0.911133 1.80871V5.45346H4.55589M0.911133 9.09822C1.13397 10.7017 1.87784 12.1875 3.02815 13.3266C4.17847 14.4657 5.6714 15.1951 7.277 15.4022C8.88259 15.6094 10.5118 15.2829 11.9136 14.4731C13.3153 13.6633 14.412 12.415 15.0346 10.9206M15.4902 14.5653V10.9206H11.8454" stroke="#155DFC" stroke-width="1.82238" stroke-linecap="round" stroke-linejoin="round"/>
</svg>
