<svg width="19" height="26" viewBox="0 0 19 26" fill="none" xmlns="http://www.w3.org/2000/svg">
<path d="M8.86662 1.18669L8.15248 0.575196L8.15203 0.575728L8.86662 1.18669ZM9.40222 0.940186V1.93119e-05V0.940186ZM9.93782 1.18669L10.6525 0.57584L10.652 0.575197L9.93782 1.18669ZM15.513 16.9274C15.513 16.4082 15.0921 15.9873 14.5728 15.9873C14.0536 15.9873 13.6327 16.4082 13.6327 16.9274H14.5728H15.513ZM10.3421 20.218C9.82285 20.218 9.40193 20.6389 9.40193 21.1582C9.40193 21.6774 9.82285 22.0983 10.3421 22.0983V21.1582V20.218ZM17.8634 16.4573H16.9233C16.9233 18.8537 16.173 20.7126 14.9151 21.9705C13.6572 23.2284 11.7983 23.9787 9.40193 23.9787V24.9188V25.859C12.1982 25.859 14.57 24.9748 16.2447 23.3001C17.9194 21.6255 18.8036 19.2537 18.8036 16.4573H17.8634ZM9.40193 24.9188V23.9787C7.00559 23.9787 5.14663 23.2284 3.88873 21.9705C2.63083 20.7126 1.8806 18.8537 1.8806 16.4573H0.94043H0.000263453C0.000263453 19.2537 0.884449 21.6255 2.55913 23.3001C4.23382 24.9748 6.60561 25.859 9.40193 25.859V24.9188ZM0.94043 16.4573H1.8806C1.8806 13.9508 3.27002 10.87 5.00713 8.04024C6.71975 5.25037 8.66624 2.86781 9.58121 1.79765L8.86662 1.18669L8.15203 0.575728C7.20664 1.68147 5.19004 4.14811 3.40465 7.05653C1.64376 9.92504 0.000263453 13.3916 0.000263453 16.4573H0.94043ZM8.86662 1.18669L9.58075 1.79818C9.55869 1.82395 9.53131 1.84464 9.50049 1.85882L9.10742 1.00477L8.71435 0.150715C8.49862 0.250001 8.30694 0.394811 8.15248 0.575197L8.86662 1.18669ZM9.10742 1.00477L9.50049 1.85882C9.46967 1.87301 9.43615 1.88035 9.40222 1.88035V0.940186V1.93119e-05C9.16474 1.93119e-05 8.93008 0.0514284 8.71435 0.150715L9.10742 1.00477ZM9.40222 0.940186V1.88035C9.3683 1.88035 9.33477 1.87301 9.30395 1.85882L9.69702 1.00477L10.0901 0.150715C9.87436 0.0514284 9.6397 1.93119e-05 9.40222 1.93119e-05V0.940186ZM9.69702 1.00477L9.30395 1.85882C9.27313 1.84464 9.24575 1.82395 9.22369 1.79818L9.93782 1.18669L10.652 0.575197C10.4975 0.394816 10.3058 0.250004 10.0901 0.150715L9.69702 1.00477ZM9.93782 1.18669L9.22314 1.79754C10.1379 2.86778 12.0842 5.25035 13.7968 8.04023C15.5338 10.87 16.9233 13.9508 16.9233 16.4573H17.8634H18.8036C18.8036 13.3916 17.1601 9.92504 15.3993 7.05654C13.614 4.14813 11.5975 1.6815 10.6525 0.57584L9.93782 1.18669ZM14.5728 16.9274H13.6327C13.6327 17.8001 13.286 18.6371 12.6689 19.2542L13.3337 19.919L13.9985 20.5838C14.9682 19.6141 15.513 18.2988 15.513 16.9274H14.5728ZM13.3337 19.919L12.6689 19.2542C12.0518 19.8713 11.2148 20.218 10.3421 20.218V21.1582V22.0983C11.7135 22.0983 13.0287 21.5535 13.9985 20.5838L13.3337 19.919Z" fill="white"/>
</svg>
