<svg width="17" height="17" viewBox="0 0 17 17" fill="none" xmlns="http://www.w3.org/2000/svg">
<path d="M0 16.461C0.0506667 15.1883 0.257666 14.071 0.621 13.109C0.985 12.1463 1.467 11.3183 2.067 10.625C2.667 9.93167 3.365 9.373 4.161 8.949C4.957 8.525 5.81333 8.22167 6.73 8.039V5.058C4.53667 4.81333 2.90833 4.215 1.845 3.263C0.780333 2.311 0.177667 1.22333 0.0369999 0H16.421C16.2677 1.22333 15.6623 2.311 14.605 3.263C13.5477 4.215 11.9227 4.81333 9.73 5.058V8.038C10.6467 8.222 11.5033 8.52567 12.3 8.949C13.0967 9.37233 13.7943 9.931 14.393 10.625C14.993 11.3183 15.475 12.1463 15.839 13.109C16.203 14.0717 16.4103 15.1893 16.461 16.462H11.73V15.462H15.432C15.0933 13.1333 14.2307 11.46 12.844 10.442C11.4573 9.424 9.91933 8.91567 8.23 8.917C6.54067 8.91833 5.00233 9.42633 3.615 10.441C2.22767 11.4557 1.36533 13.129 1.028 15.461H4.73V16.461H0ZM8.23 4.126C10.3367 4.126 11.9143 3.781 12.963 3.091C14.0117 2.40033 14.6807 1.70367 14.97 1.001H1.49C1.76667 1.70367 2.43267 2.40033 3.488 3.091C4.54333 3.78167 6.124 4.12733 8.23 4.126ZM8.23 16.462C7.808 16.462 7.45267 16.3173 7.164 16.028C6.87467 15.7393 6.73 15.384 6.73 14.962C6.73 14.7553 6.76833 14.5643 6.845 14.389C6.921 14.213 7.03133 14.059 7.176 13.927C7.448 13.655 7.998 13.324 8.826 12.934C9.654 12.5433 10.4873 12.1873 11.326 11.866C11.0007 12.6527 10.6437 13.473 10.255 14.327C9.86633 15.181 9.53633 15.744 9.265 16.016C9.13233 16.1607 8.97833 16.271 8.803 16.347C8.627 16.4237 8.436 16.462 8.23 16.462Z" fill="black"/>
</svg>
