<svg width="26" height="26" viewBox="0 0 26 26" fill="none" xmlns="http://www.w3.org/2000/svg">
<path d="M12.7185 7.41924C13.3039 7.41924 13.7784 6.94473 13.7784 6.3594C13.7784 5.77407 13.3039 5.29956 12.7185 5.29956C12.1332 5.29956 11.6587 5.77407 11.6587 6.3594C11.6587 6.94473 12.1332 7.41924 12.7185 7.41924Z" fill="white"/>
<path d="M6.35938 18.0172H19.0774V20.1369H6.35938V18.0172ZM10.5987 12.5378L13.5578 15.499L17.7251 11.3285L19.0774 12.718V8.47864H14.8381L16.2265 9.82993L13.5567 12.4997L10.5987 9.53848L6.35938 13.7778L7.85799 15.2764L10.5987 12.5378Z" fill="white"/>
<path d="M20.1369 3.17907H16.6415C16.5366 3.02302 16.4233 2.87266 16.3024 2.72864L16.2918 2.71592C15.5128 1.80931 14.4174 1.23393 13.2288 1.10709C12.8913 1.0434 12.5447 1.0434 12.2072 1.10709C11.0186 1.23393 9.9232 1.80931 9.14423 2.71592L9.13364 2.72864C9.0127 2.87232 8.89949 3.02232 8.79449 3.17801V3.17907H5.29914C4.45614 3.17992 3.64791 3.51517 3.05182 4.11126C2.45572 4.70735 2.12047 5.51559 2.11963 6.35859V21.1963C2.12047 22.0393 2.45572 22.8476 3.05182 23.4436C3.64791 24.0397 4.45614 24.375 5.29914 24.3758H20.1369C20.9799 24.375 21.7881 24.0397 22.3842 23.4436C22.9803 22.8476 23.3155 22.0393 23.3164 21.1963V6.35859C23.3155 5.51559 22.9803 4.70735 22.3842 4.11126C21.7881 3.51517 20.9799 3.17992 20.1369 3.17907ZM21.1967 21.1963C21.1967 21.4774 21.085 21.747 20.8863 21.9457C20.6875 22.1445 20.418 22.2562 20.1369 22.2562H5.29914C5.01806 22.2562 4.74848 22.1445 4.54972 21.9457C4.35097 21.747 4.2393 21.4774 4.2393 21.1963V6.35859C4.2393 6.0775 4.35097 5.80793 4.54972 5.60917C4.74848 5.41041 5.01806 5.29875 5.29914 5.29875H10.1214C10.243 4.69979 10.568 4.16129 11.0412 3.7745C11.5144 3.38771 12.1068 3.17642 12.718 3.17642C13.3292 3.17642 13.9216 3.38771 14.3948 3.7745C14.868 4.16129 15.193 4.69979 15.3146 5.29875H20.1369C20.418 5.29875 20.6875 5.41041 20.8863 5.60917C21.085 5.80793 21.1967 6.0775 21.1967 6.35859V21.1963Z" fill="white"/>
</svg>
