<svg width="23" height="23" viewBox="0 0 23 23" fill="none" xmlns="http://www.w3.org/2000/svg">
<path d="M10.4936 19.9428C8.65054 19.9483 6.87269 19.261 5.51267 18.0171C4.15265 16.7733 3.30979 15.0637 3.15127 13.2274C2.99274 11.3912 3.53013 9.56244 4.65685 8.10387C5.78357 6.64531 7.41731 5.66348 9.23406 5.3531C15.2169 4.19853 16.7913 3.65273 18.8905 1.04968C19.9401 3.14891 20.9898 5.43707 20.9898 9.4466C20.9898 15.2195 15.9726 19.9428 10.4936 19.9428Z" stroke="#4ABEA6" stroke-width="2.09923" stroke-linecap="round" stroke-linejoin="round"/>
<path d="M1.0498 20.9933C1.0498 17.8444 2.99159 15.3674 6.38185 14.6956C8.92192 14.1918 11.546 12.5964 12.5956 11.5468" stroke="#4ABEA6" stroke-width="2.09923" stroke-linecap="round" stroke-linejoin="round"/>
</svg>
