<svg width="28" height="28" viewBox="0 0 28 28" fill="none" xmlns="http://www.w3.org/2000/svg">
<path d="M22.1407 7.88477H5.95404C5.6474 7.88477 5.35332 8.00658 5.13649 8.22341C4.91966 8.44023 4.79785 8.73431 4.79785 9.04095V24.0714C4.79785 24.378 4.91966 24.6721 5.13649 24.8889C5.35332 25.1058 5.6474 25.2276 5.95404 25.2276H22.1407C22.4473 25.2276 22.7414 25.1058 22.9582 24.8889C23.175 24.6721 23.2968 24.378 23.2968 24.0714V9.04095C23.2968 8.73431 23.175 8.44023 22.9582 8.22341C22.7414 8.00658 22.4473 7.88477 22.1407 7.88477Z" stroke="white" stroke-width="2.31237" stroke-linecap="round" stroke-linejoin="round"/>
<path d="M10.001 10.1966V6.14993C10.001 5.61851 10.1056 5.0923 10.309 4.60134C10.5124 4.11038 10.8104 3.66428 11.1862 3.28851C11.562 2.91274 12.0081 2.61467 12.499 2.4113C12.99 2.20794 13.5162 2.10327 14.0476 2.10327C14.579 2.10327 15.1053 2.20794 15.5962 2.4113C16.0872 2.61467 16.5333 2.91274 16.909 3.28851C17.2848 3.66428 17.5829 4.11038 17.7863 4.60134C17.9896 5.0923 18.0943 5.61851 18.0943 6.14993V10.1966" stroke="white" stroke-width="2.31237" stroke-linecap="round" stroke-linejoin="round"/>
</svg>
