<svg width="17" height="9" viewBox="0 0 17 9" fill="none" xmlns="http://www.w3.org/2000/svg">
<path d="M5.06889 2.95455L5.55101 2.47243L5.02308 1.9445L4.5451 2.51806L5.06889 2.95455ZM9.1598 7.04546L8.67768 7.52758L9.1598 8.0097L9.64192 7.52758L9.1598 7.04546ZM16.2053 0.681824C16.2053 0.305266 15.9 5.60284e-06 15.5234 5.60284e-06L9.38707 5.1856e-06C9.01052 5.1856e-06 8.70526 0.305266 8.70526 0.681823C8.70526 1.05838 9.01052 1.36364 9.38707 1.36364L14.8416 1.36364V6.81819C14.8416 7.19474 15.1469 7.5 15.5234 7.5C15.9 7.50001 16.2053 7.19474 16.2053 6.81819L16.2053 0.681824ZM0.523438 8.4091L1.04722 8.84558L5.59268 3.39104L5.06889 2.95455L4.5451 2.51806L-0.000349641 7.97261L0.523438 8.4091ZM5.06889 2.95455L4.58677 3.43667L8.67768 7.52758L9.1598 7.04546L9.64192 6.56334L5.55101 2.47243L5.06889 2.95455ZM9.1598 7.04546L9.64192 7.52758L16.0056 1.16394L15.5234 0.681824L15.0413 0.199705L8.67768 6.56334L9.1598 7.04546Z" fill="#044D5E"/>
</svg>
