<svg width="36" height="36" viewBox="0 0 36 36" fill="none" xmlns="http://www.w3.org/2000/svg">
<path d="M25.6358 35.1766L22.6602 35.1253L22.8287 25.7806C22.8327 25.3357 22.9262 24.8961 23.1038 24.4881C23.2813 24.0801 23.5392 23.7121 23.8621 23.406C24.5075 22.79 25.3667 22.4484 26.2588 22.4532L35.4569 22.6291L35.3762 25.6047L26.2148 25.4288C26.1604 25.4267 26.1063 25.4361 26.0558 25.4563C26.0053 25.4765 25.9596 25.5071 25.9216 25.5461C25.8474 25.6229 25.8055 25.7252 25.8044 25.8319L25.6358 35.1766Z" fill="white"/>
<path d="M4.36156 28.8178L2.55859 26.4505L14.5418 17.3477C15.646 16.5062 16.632 15.5202 17.4734 14.416L26.7888 2.125L29.1561 3.92065L19.8261 16.2263C18.8213 17.5421 17.6428 18.7157 16.3227 19.715L4.36156 28.8178Z" fill="white"/>
<path d="M11.5061 34.6875L8.93359 33.2216L13.2065 25.8338C16.2825 20.5136 20.7032 16.0955 26.0252 13.0225L33.6402 8.625L35.106 11.2049L27.491 15.6023C22.624 18.4186 18.5806 22.4619 15.7644 27.329L11.5061 34.6875Z" fill="white"/>
<path d="M0.69627 19.8606L0 16.9655L12.87 13.902C13.1292 13.8394 13.3657 13.7052 13.5523 13.5147C13.7389 13.3242 13.8682 13.0851 13.9254 12.8246L17.0989 -0.0234375L19.9866 0.709478L16.8131 13.5575C16.6223 14.3439 16.2183 15.0625 15.6454 15.634C15.0726 16.2056 14.3531 16.608 13.5663 16.797L0.69627 19.8606Z" fill="white"/>
<path d="M12.0789 13.4423C11.8986 13.4433 11.7197 13.411 11.5512 13.3471L2.96875 10.0929L4.02415 7.31517L9.68225 9.45528L7.71804 3.55532L10.5471 2.61719L13.4788 11.4855C13.5582 11.7087 13.5823 11.9479 13.549 12.1825C13.5158 12.4171 13.4261 12.6401 13.2878 12.8325C13.1494 13.0249 12.9665 13.1809 12.7547 13.2871C12.5429 13.3933 12.3085 13.4466 12.0716 13.4423H12.0789Z" fill="white"/>
</svg>
