<svg width="36" height="36" viewBox="0 0 36 36" fill="none" xmlns="http://www.w3.org/2000/svg">
<path d="M25.6373 35.1805L22.6616 35.1292L22.8302 25.7845C22.8341 25.3396 22.9277 24.9 23.1052 24.492C23.2828 24.084 23.5407 23.716 23.8636 23.4099C24.509 22.7939 25.3681 22.4523 26.2602 22.4571L35.4583 22.633L35.3777 25.6086L26.2163 25.4327C26.1619 25.4306 26.1077 25.44 26.0572 25.4602C26.0067 25.4804 25.961 25.511 25.9231 25.55C25.8489 25.6268 25.807 25.7291 25.8058 25.8358L25.6373 35.1805Z" fill="#044D5E"/>
<path d="M4.36083 28.8183L2.55786 26.4509L14.541 17.3481C15.6452 16.5067 16.6313 15.5207 17.4727 14.4165L26.788 2.12549L29.1554 3.92114L19.8253 16.2268C18.8205 17.5426 17.642 18.7162 16.322 19.7155L4.36083 28.8183Z" fill="#1ECEC9"/>
<path d="M11.5066 34.6889L8.93408 33.2231L13.207 25.8353C16.283 20.5151 20.7037 16.097 26.0257 13.024L33.6407 8.62646L35.1065 11.2063L27.4915 15.6038C22.6245 18.42 18.5811 22.4634 15.7649 27.3305L11.5066 34.6889Z" fill="#4ABEA6"/>
<path d="M0.69627 19.8625L0 16.9675L12.87 13.9039C13.1292 13.8414 13.3657 13.7072 13.5523 13.5167C13.7389 13.3262 13.8682 13.087 13.9254 12.8265L17.0989 -0.0214844L19.9866 0.711431L16.8131 13.5594C16.6223 14.3459 16.2183 15.0644 15.6454 15.636C15.0726 16.2076 14.3531 16.61 13.5663 16.7989L0.69627 19.8625Z" fill="#53D8F5"/>
<path d="M12.0784 13.4418C11.8981 13.4428 11.7192 13.4105 11.5507 13.3466L2.96826 10.0924L4.02366 7.31468L9.68176 9.45479L7.71755 3.55483L10.5466 2.6167L13.4783 11.485C13.5577 11.7082 13.5818 11.9474 13.5485 12.182C13.5153 12.4166 13.4256 12.6397 13.2873 12.832C13.149 13.0244 12.966 13.1804 12.7542 13.2866C12.5424 13.3928 12.308 13.4461 12.0711 13.4418H12.0784Z" fill="#28A9F1"/>
</svg>
