<svg width="278" height="44" viewBox="0 0 278 44" fill="none" xmlns="http://www.w3.org/2000/svg">
<g clip-path="url(#clip0_5220_55995)">
<path d="M74.6319 9.79688H70.1127C70.4244 18.8902 60.5519 19.7335 60.5519 19.7335V9.79688H56.2344V34.3727H60.5519V23.3727H61.2852C61.6402 23.3769 61.9897 23.4615 62.3072 23.6203C62.6248 23.7791 62.9022 24.0078 63.1185 24.2894L70.8277 34.3727H76.126V34.1894L66.6752 22.0619C66.6752 22.0619 74.5494 19.651 74.6319 9.79688Z" fill="#044D5E"/>
<path d="M83.7156 32.0257C83.3068 30.8136 83.1265 29.5361 83.1839 28.2582V9.16406H78.9214V28.7624C78.8802 29.9336 79.013 31.1044 79.3156 32.2366C79.5666 33.0299 79.9681 33.7675 80.4981 34.4091H85.0814V34.2257C84.4894 33.5866 84.0257 32.8398 83.7156 32.0257Z" fill="#044D5E"/>
<path d="M92.6406 15.4688H92.3381C91.2879 15.4688 90.2806 15.0515 89.538 14.3089C88.7953 13.5663 88.3781 12.559 88.3781 11.5088V11.2063H92.6406V15.4688Z" fill="#044D5E"/>
<path d="M92.6453 15.4766H88.3828V34.4149H92.6453V15.4766Z" fill="#044D5E"/>
<path d="M123.013 17.002C122.475 16.3137 121.775 15.7703 120.974 15.4214C120.174 15.0724 119.299 14.9288 118.429 15.0037C117.25 14.9443 116.084 15.2657 115.102 15.9204C114.259 16.5179 113.619 17.3593 113.268 18.3312H112.508C112.125 17.3433 111.451 16.4958 110.573 15.902C109.591 15.2714 108.441 14.9519 107.273 14.9854C106.108 14.9178 104.953 15.2403 103.992 15.902C103.194 16.5078 102.599 17.3424 102.287 18.2945H101.526V15.4529H97.6484V34.3729H101.993V24.1887C101.94 22.7752 102.3 21.3768 103.029 20.1645C103.334 19.6528 103.77 19.2317 104.292 18.9449C104.815 18.6581 105.404 18.5158 105.999 18.5329C106.453 18.4987 106.907 18.5923 107.311 18.8029C107.714 19.0135 108.05 19.3327 108.282 19.7245C108.818 20.7712 109.065 21.9421 108.997 23.1162V34.3729H113.259V24.1887C113.207 22.7764 113.563 21.379 114.286 20.1645C114.585 19.6516 115.017 19.2291 115.537 18.9418C116.057 18.6546 116.644 18.5133 117.238 18.5329C117.691 18.4998 118.145 18.5938 118.548 18.8043C118.951 19.0148 119.288 19.3335 119.52 19.7245C120.056 20.7712 120.303 21.9421 120.235 23.1162V34.3729H124.498V22.3279C124.582 20.4397 124.062 18.5739 123.013 17.002Z" fill="#044D5E"/>
<path d="M145.996 32.2351C145.622 31.1324 145.454 29.9702 145.501 28.8068V15.4784H141.624V17.9351H140.872C140.468 17.0883 139.832 16.3732 139.039 15.8726C138.023 15.2707 136.854 14.9776 135.674 15.0293C134.168 14.9785 132.685 15.4087 131.439 16.2576C130.262 17.1348 129.369 18.3402 128.873 19.7226C128.265 21.3833 127.973 23.1429 128.011 24.9109C127.976 26.6742 128.262 28.4291 128.854 30.0901C129.351 31.4773 130.239 32.6906 131.412 33.5826C132.662 34.4454 134.157 34.8825 135.674 34.8293C136.856 34.8797 138.027 34.5799 139.039 33.9676C139.818 33.4697 140.45 32.7738 140.872 31.9509H141.862C141.888 32.1138 141.931 32.2735 141.99 32.4276C142.211 33.1513 142.572 33.8243 143.054 34.4076H147.261V34.2426C146.714 33.661 146.285 32.9794 145.996 32.2351ZM140.047 29.7876C139.681 30.3596 139.174 30.8284 138.576 31.1493C137.977 31.4702 137.307 31.6326 136.628 31.6209C136.002 31.6393 135.383 31.4911 134.834 31.1915C134.285 30.8919 133.825 30.4517 133.502 29.9159C132.771 28.3631 132.393 26.6682 132.393 24.9522C132.393 23.2361 132.771 21.5412 133.502 19.9884C133.821 19.4479 134.28 19.003 134.83 18.6999C135.379 18.3968 136 18.2466 136.628 18.2651C137.307 18.2543 137.977 18.4171 138.575 18.7379C139.174 19.0587 139.68 19.527 140.047 20.0984C140.965 21.5535 141.41 23.257 141.321 24.9751C141.402 26.6722 140.957 28.3529 140.047 29.7876Z" fill="#044D5E"/>
<path d="M173.737 9.73438V19.616H159.657C159.137 19.616 158.638 19.8227 158.27 20.1906C157.902 20.5585 157.695 21.0574 157.695 21.5777V34.3744H161.234V22.586H173.737V34.3744H177.266V9.73438H173.737ZM161.234 9.73438H157.695V18.2502H161.234V9.73438Z" fill="#1ECEC9"/>
<path d="M198.609 32.6573C198.319 31.7958 198.189 30.8888 198.224 29.9806V15.4148H195.199V17.8714H194.438C194.047 17.0405 193.431 16.3356 192.66 15.8364C191.641 15.1867 190.447 14.8666 189.24 14.9198C187.748 14.8732 186.279 15.3069 185.051 16.1573C183.86 17.0297 182.949 18.2306 182.43 19.6131C181.232 23.0123 181.232 26.7189 182.43 30.1181C182.948 31.5009 183.855 32.7043 185.042 33.5831C186.254 34.4236 187.702 34.8541 189.176 34.8114C190.398 34.8711 191.609 34.5509 192.641 33.8948C193.433 33.4076 194.069 32.7048 194.475 31.8689H195.336C195.369 32.1795 195.43 32.4864 195.52 32.7856C195.695 33.3537 195.978 33.8828 196.354 34.3439H199.635V34.2064C199.198 33.7598 198.85 33.2341 198.609 32.6573ZM193.53 30.0264C193.121 30.6447 192.562 31.149 191.904 31.4921C191.247 31.8352 190.513 32.0058 189.772 31.9881C189.074 32.0188 188.379 31.8656 187.758 31.5439C187.137 31.2222 186.612 30.7432 186.234 30.1548C185.426 28.5265 185.006 26.7336 185.006 24.916C185.006 23.0984 185.426 21.3055 186.234 19.6773C186.61 19.0875 187.136 18.6075 187.757 18.2856C188.378 17.9637 189.073 17.8114 189.772 17.8439C190.512 17.8261 191.245 17.9957 191.902 18.3371C192.559 18.6785 193.12 19.1805 193.53 19.7964C194.437 21.3587 194.914 23.1328 194.914 24.9389C194.914 26.7451 194.437 28.5191 193.53 30.0814V30.0264Z" fill="#1ECEC9"/>
<path d="M211.691 15.2265C210.686 15.178 209.684 15.3566 208.758 15.749C208.138 16.0313 207.613 16.4865 207.245 17.0599C206.943 17.5484 206.718 18.0801 206.576 18.6365H205.824V15.419H202.836V34.3757H206.246V24.5124C206.12 22.8969 206.533 21.2852 207.419 19.929C208.189 18.9482 209.528 18.4624 211.425 18.4624H212.342V15.2357L211.691 15.2265Z" fill="#1ECEC9"/>
<path d="M227.586 15.4141L222.819 31.5107H222.058L217.292 15.4141H213.836V15.6066L219.583 34.3707H224.946L230.693 15.6249V15.4324L227.586 15.4141Z" fill="#1ECEC9"/>
<path d="M249.095 24.799C249.095 21.5968 248.416 19.1524 247.06 17.4657C246.338 16.6114 245.427 15.9376 244.399 15.4983C243.371 15.059 242.254 14.8663 241.138 14.9357C239.494 14.8781 237.87 15.3191 236.481 16.2007C235.212 17.0614 234.224 18.2759 233.64 19.6932C232.966 21.3382 232.638 23.1043 232.677 24.8815C232.553 27.4628 233.316 30.0087 234.84 32.0957C235.603 33.021 236.573 33.7526 237.673 34.2306C238.772 34.7086 239.969 34.9194 241.165 34.8457C242.498 34.8852 243.819 34.5988 245.015 34.0115C246.045 33.4745 246.917 32.6783 247.545 31.7015C248.2 30.663 248.66 29.5136 248.902 28.3099H245.685C245.441 29.3776 244.894 30.3519 244.108 31.1149C243.306 31.8155 242.266 32.18 241.202 32.1324C240.473 32.1758 239.745 32.0348 239.085 31.7224C238.425 31.4099 237.854 30.9362 237.425 30.3449C236.516 28.9874 236.019 27.3954 235.995 25.7615H249.095V24.799ZM236.023 23.314C236.111 21.7986 236.654 20.345 237.581 19.1432C238.02 18.6497 238.565 18.261 239.174 18.0056C239.783 17.7502 240.442 17.6346 241.101 17.6674C241.733 17.6369 242.362 17.7517 242.942 18.0028C243.523 18.2538 244.037 18.6346 244.447 19.1157C245.352 20.3248 245.82 21.8046 245.776 23.314H236.023Z" fill="#1ECEC9"/>
<path d="M265.615 26.7203C265.133 26.0161 264.488 25.4377 263.736 25.0337C262.856 24.5428 261.936 24.1259 260.986 23.787L258.749 23.0262C257.918 22.7522 257.147 22.3229 256.476 21.7612C256.229 21.5392 256.032 21.2659 255.901 20.9604C255.769 20.6549 255.706 20.3244 255.715 19.992C255.702 19.6591 255.767 19.3277 255.904 19.0239C256.04 18.7201 256.246 18.4522 256.504 18.2412C257.165 17.7718 257.968 17.5452 258.777 17.5995C259.268 17.5527 259.763 17.6147 260.227 17.781C260.692 17.9474 261.113 18.214 261.463 18.562C261.986 19.17 262.307 19.9263 262.379 20.7253H265.597C265.521 19.6843 265.208 18.6744 264.68 17.7737C264.165 16.8862 263.404 16.1667 262.489 15.702C261.362 15.1593 260.119 14.8982 258.869 14.9412C257.157 14.8444 255.467 15.3612 254.102 16.3987C253.535 16.8689 253.084 17.4632 252.784 18.1356C252.483 18.8079 252.342 19.5403 252.369 20.2762C252.33 21.1986 252.583 22.11 253.094 22.8795C253.604 23.5874 254.269 24.1703 255.037 24.5845C255.919 25.0726 256.839 25.4895 257.787 25.8312L260.024 26.6195C260.834 26.8804 261.583 27.3047 262.224 27.8662C262.451 28.0913 262.631 28.36 262.752 28.656C262.873 28.9521 262.934 29.2696 262.929 29.5895C262.94 29.9535 262.862 30.3145 262.702 30.6418C262.542 30.969 262.306 31.2527 262.013 31.4687C261.255 31.987 260.344 32.2356 259.428 32.1745C258.562 32.2095 257.702 32.0167 256.934 31.6153C256.316 31.2655 255.803 30.7558 255.449 30.1395C255.121 29.5787 254.917 28.9532 254.854 28.3062H251.508C251.558 29.4211 251.872 30.5082 252.424 31.4778C253.031 32.5124 253.918 33.3545 254.982 33.907C256.324 34.571 257.812 34.8862 259.309 34.8237C261.143 34.9516 262.96 34.4002 264.414 33.2745C264.989 32.7866 265.446 32.1757 265.752 31.487C266.059 30.7983 266.206 30.0495 266.184 29.2962C266.251 28.4004 266.053 27.5047 265.615 26.7203Z" fill="#1ECEC9"/>
<path d="M277.659 18.0632V15.4141H268.492V18.0632H271.086V28.7057C271.035 29.9183 271.177 31.1313 271.508 32.2991C271.761 33.0424 272.139 33.7369 272.626 34.3524H276.385V34.1599C275.822 33.5317 275.369 32.8126 275.046 32.0332C274.615 30.7913 274.425 29.4782 274.487 28.1649V18.0816L277.659 18.0632Z" fill="#1ECEC9"/>
<path d="M271.386 15.4141H271.148V12.1324H274.43V12.3707C274.427 13.1771 274.106 13.9498 273.536 14.52C272.965 15.0902 272.193 15.4116 271.386 15.4141Z" fill="#1ECEC9"/>
<path d="M32.0654 44.0071L28.3438 43.943L28.5546 32.2555C28.5595 31.699 28.6765 31.1492 28.8986 30.6389C29.1206 30.1287 29.4432 29.6684 29.8471 29.2855C30.6542 28.5151 31.7288 28.0879 32.8446 28.0938L44.3487 28.3138L44.2479 32.0355L32.7896 31.8155C32.7216 31.8129 32.6538 31.8246 32.5907 31.8499C32.5275 31.8751 32.4704 31.9134 32.4229 31.9621C32.3301 32.0582 32.2777 32.1861 32.2763 32.3196L32.0654 44.0071Z" fill="#044D5E"/>
<path d="M5.45812 36.0491L3.20312 33.0882L18.1906 21.7032C19.5717 20.6509 20.8049 19.4176 21.8573 18.0366L33.5081 2.66406L36.469 4.90991L24.7998 20.3007C23.5431 21.9465 22.0691 23.4143 20.4181 24.6641L5.45812 36.0491Z" fill="#1ECEC9"/>
<path d="M14.3894 43.3935L11.1719 41.5602L16.516 32.3202C20.3633 25.6661 25.8922 20.1403 32.5485 16.2969L42.0727 10.7969L43.906 14.0235L34.3819 19.5235C28.2946 23.0458 23.2375 28.1029 19.7152 34.1902L14.3894 43.3935Z" fill="#4ABEA6"/>
<path d="M0.870834 24.8457L0 21.2249L16.0967 17.3932C16.4209 17.315 16.7166 17.1472 16.9501 16.9089C17.1835 16.6706 17.3452 16.3715 17.4167 16.0457L21.3858 -0.0234375L24.9975 0.893229L21.0283 16.9624C20.7898 17.946 20.2845 18.8447 19.568 19.5596C18.8515 20.2744 17.9516 20.7777 16.9675 21.0141L0.870834 24.8457Z" fill="#53D8F5"/>
<path d="M15.1051 16.8126C14.8796 16.8138 14.6559 16.7734 14.4451 16.6934L3.71094 12.6234L5.03094 9.14926L12.1076 11.8259L9.65094 4.44677L13.1893 3.27344L16.8559 14.3651C16.9553 14.6443 16.9854 14.9435 16.9438 15.2369C16.9022 15.5303 16.7901 15.8093 16.6171 16.0499C16.4441 16.2905 16.2153 16.4856 15.9504 16.6184C15.6854 16.7513 15.3923 16.8179 15.0959 16.8126H15.1051Z" fill="#28A9F1"/>
</g>
<defs>
<clipPath id="clip0_5220_55995">
<rect width="277.658" height="44" fill="white"/>
</clipPath>
</defs>
</svg>
