<svg width="222" height="36" viewBox="0 0 222 36" fill="none" xmlns="http://www.w3.org/2000/svg">
<g clip-path="url(#clip0_5079_26364)">
<path d="M59.6744 7.83594H56.0612C56.3104 15.1065 48.4169 15.7807 48.4169 15.7807V7.83594H44.9648V27.4854H48.4169V18.6904H49.0032C49.2871 18.6937 49.5665 18.7614 49.8204 18.8884C50.0743 19.0153 50.2961 19.1982 50.469 19.4233L56.6329 27.4854H60.8691V27.3388L53.3127 17.6423C53.3127 17.6423 59.6085 15.7148 59.6744 7.83594Z" fill="white"/>
<path d="M66.9367 25.607C66.6099 24.6379 66.4657 23.6165 66.5116 22.5948V7.32812H63.1035V22.9979C63.0706 23.9343 63.1768 24.8704 63.4187 25.7756C63.6194 26.4099 63.9404 26.9997 64.3641 27.5126H68.0287V27.366C67.5554 26.855 67.1847 26.2579 66.9367 25.607Z" fill="white"/>
<path d="M74.0742 12.375H73.8324C72.9926 12.375 72.1873 12.0414 71.5935 11.4477C70.9997 10.8539 70.6662 10.0485 70.6662 9.20881V8.96695H74.0742V12.375Z" fill="white"/>
<path d="M74.076 12.375H70.668V27.517H74.076V12.375Z" fill="white"/>
<path d="M98.3579 13.596C97.9284 13.0456 97.3683 12.6112 96.7283 12.3322C96.0884 12.0532 95.3889 11.9384 94.6933 11.9983C93.7508 11.9508 92.818 12.2077 92.0328 12.7312C91.3589 13.209 90.8473 13.8816 90.567 14.6587H89.9587C89.6532 13.8689 89.1136 13.1912 88.4122 12.7165C87.6265 12.2123 86.7069 11.9569 85.7737 11.9836C84.842 11.9296 83.9188 12.1874 83.1499 12.7165C82.5117 13.2009 82.0362 13.8681 81.7867 14.6294H81.1784V12.3574H78.0781V27.4848H81.5521V19.3421C81.5097 18.2119 81.7975 17.0938 82.3803 16.1246C82.6242 15.7154 82.9728 15.3788 83.3903 15.1494C83.8077 14.9201 84.2789 14.8064 84.755 14.82C85.1178 14.7927 85.481 14.8675 85.8035 15.0359C86.126 15.2042 86.395 15.4595 86.5799 15.7728C87.0087 16.6096 87.2061 17.5458 87.1516 18.4846V27.4848H90.5597V19.3421C90.5175 18.2129 90.8026 17.0956 91.3805 16.1246C91.6196 15.7145 91.9652 15.3766 92.3807 15.147C92.7962 14.9173 93.2661 14.8043 93.7405 14.82C94.1032 14.7936 94.4661 14.8687 94.7884 15.037C95.1108 15.2053 95.3799 15.4601 95.5655 15.7728C95.9942 16.6096 96.1916 17.5458 96.1372 18.4846V27.4848H99.5452V17.8543C99.613 16.3446 99.1971 14.8528 98.3579 13.596Z" fill="white"/>
<path d="M116.73 25.7771C116.431 24.8954 116.297 23.9662 116.334 23.036V12.3794H113.234V14.3436H112.633C112.31 13.6666 111.802 13.0948 111.167 12.6946C110.355 12.2133 109.421 11.979 108.477 12.0203C107.273 11.9797 106.087 12.3237 105.091 13.0024C104.15 13.7038 103.436 14.6675 103.039 15.7728C102.553 17.1007 102.32 18.5075 102.35 19.9211C102.322 21.3309 102.551 22.734 103.025 24.0621C103.421 25.1712 104.132 26.1413 105.069 26.8545C106.069 27.5443 107.264 27.8938 108.477 27.8512C109.422 27.8916 110.358 27.6519 111.167 27.1623C111.79 26.7642 112.296 26.2078 112.633 25.5499H113.425C113.446 25.6801 113.48 25.8078 113.527 25.931C113.703 26.5097 113.992 27.0477 114.377 27.5141H117.742V27.3822C117.304 26.9172 116.961 26.3722 116.73 25.7771ZM111.973 23.8202C111.681 24.2776 111.276 24.6524 110.797 24.909C110.319 25.1655 109.783 25.2954 109.24 25.286C108.74 25.3007 108.245 25.1823 107.806 24.9427C107.366 24.7032 106.999 24.3512 106.74 23.9228C106.156 22.6813 105.854 21.3262 105.854 19.9541C105.854 18.582 106.156 17.2269 106.74 15.9853C106.996 15.5532 107.362 15.1974 107.802 14.9551C108.241 14.7128 108.738 14.5927 109.24 14.6075C109.782 14.5988 110.318 14.729 110.797 14.9855C111.275 15.242 111.68 15.6164 111.973 16.0733C112.707 17.2367 113.063 18.5987 112.992 19.9724C113.057 21.3293 112.701 22.6731 111.973 23.8202Z" fill="white"/>
<path d="M138.908 7.78125V15.6821H127.65C127.234 15.6821 126.836 15.8473 126.541 16.1415C126.247 16.4356 126.082 16.8345 126.082 17.2505V27.482H128.911V18.0567H138.908V27.482H141.73V7.78125H138.908ZM128.911 7.78125H126.082V14.59H128.911V7.78125Z" fill="white"/>
<path d="M158.791 26.1083C158.559 25.4196 158.455 24.6944 158.483 23.9682V12.3222H156.065V14.2864H155.456C155.143 13.622 154.651 13.0584 154.034 12.6593C153.22 12.1398 152.266 11.8839 151.301 11.9264C150.107 11.8892 148.933 12.236 147.951 12.9159C146.999 13.6134 146.27 14.5736 145.855 15.679C144.897 18.3968 144.897 21.3603 145.855 24.0782C146.269 25.1838 146.995 26.146 147.944 26.8486C148.912 27.5206 150.071 27.8648 151.249 27.8307C152.226 27.8784 153.194 27.6224 154.02 27.0978C154.652 26.7082 155.161 26.1464 155.486 25.478H156.174C156.201 25.7264 156.25 25.9717 156.321 26.211C156.461 26.6652 156.688 27.0882 156.988 27.4569H159.612V27.347C159.262 26.9899 158.984 26.5695 158.791 26.1083ZM154.731 24.0049C154.403 24.4992 153.956 24.9024 153.43 25.1767C152.905 25.451 152.318 25.5875 151.726 25.5733C151.167 25.5978 150.612 25.4754 150.115 25.2182C149.619 24.9609 149.199 24.578 148.897 24.1075C148.251 22.8056 147.915 21.3721 147.915 19.9189C147.915 18.4656 148.251 17.0321 148.897 15.7303C149.198 15.2587 149.618 14.8749 150.114 14.6176C150.611 14.3602 151.167 14.2384 151.726 14.2644C152.318 14.2502 152.903 14.3858 153.429 14.6587C153.954 14.9317 154.402 15.3331 154.731 15.8255C155.455 17.0747 155.837 18.4931 155.837 19.9372C155.837 21.3813 155.455 22.7997 154.731 24.0489V24.0049Z" fill="white"/>
<path d="M169.252 12.1703C168.449 12.1315 167.647 12.2743 166.907 12.588C166.411 12.8137 165.991 13.1777 165.697 13.6361C165.456 14.0267 165.275 14.4518 165.162 14.8967H164.561V12.3242H162.172V27.4809H164.898V19.5947C164.798 18.3031 165.127 17.0145 165.836 15.9301C166.452 15.1459 167.522 14.7575 169.039 14.7575H169.772V12.1776L169.252 12.1703Z" fill="white"/>
<path d="M181.959 12.3281L178.147 25.1981H177.539L173.728 12.3281H170.965V12.482L175.56 27.4848H179.848L184.443 12.4967V12.3428L181.959 12.3281Z" fill="white"/>
<path d="M199.16 19.8269C199.16 17.2666 198.618 15.3121 197.533 13.9636C196.957 13.2805 196.228 12.7418 195.406 12.3906C194.584 12.0393 193.691 11.8853 192.799 11.9407C191.484 11.8947 190.186 12.2473 189.075 12.9521C188.061 13.6404 187.271 14.6113 186.803 15.7446C186.265 17.0598 186.003 18.4719 186.034 19.8929C185.935 21.9567 186.545 23.9922 187.764 25.6609C188.373 26.4007 189.149 26.9857 190.028 27.3679C190.907 27.75 191.864 27.9186 192.821 27.8596C193.886 27.8912 194.942 27.6623 195.899 27.1927C196.722 26.7633 197.419 26.1267 197.922 25.3457C198.445 24.5154 198.813 23.5964 199.006 22.634H196.434C196.239 23.4877 195.801 24.2667 195.173 24.8767C194.533 25.4369 193.7 25.7283 192.85 25.6902C192.267 25.725 191.685 25.6122 191.157 25.3624C190.629 25.1126 190.173 24.7338 189.83 24.261C189.103 23.1757 188.706 21.9028 188.687 20.5965H199.16V19.8269ZM188.709 18.6396C188.779 17.4279 189.214 16.2657 189.955 15.3048C190.306 14.9103 190.741 14.5994 191.228 14.3952C191.715 14.191 192.242 14.0986 192.769 14.1248C193.274 14.1005 193.778 14.1922 194.241 14.393C194.705 14.5937 195.117 14.8982 195.445 15.2828C196.168 16.2495 196.542 17.4327 196.507 18.6396H188.709Z" fill="white"/>
<path d="M212.369 21.3646C211.983 20.8016 211.468 20.3391 210.867 20.0161C210.163 19.6236 209.427 19.2902 208.668 19.0193L206.88 18.411C206.215 18.1919 205.599 17.8487 205.062 17.3996C204.864 17.2221 204.707 17.0036 204.602 16.7593C204.497 16.515 204.447 16.2508 204.454 15.985C204.444 15.7189 204.495 15.4539 204.604 15.211C204.714 14.9681 204.878 14.7539 205.084 14.5852C205.613 14.2099 206.255 14.0287 206.902 14.0721C207.294 14.0347 207.69 14.0843 208.061 14.2173C208.433 14.3503 208.77 14.5635 209.049 14.8417C209.468 15.3278 209.724 15.9325 209.782 16.5714H212.355C212.294 15.739 212.044 14.9316 211.622 14.2114C211.21 13.5018 210.602 12.9265 209.87 12.555C208.969 12.1211 207.975 11.9123 206.975 11.9467C205.607 11.8693 204.255 12.2825 203.164 13.112C202.711 13.488 202.35 13.9632 202.11 14.5007C201.87 15.0383 201.757 15.6239 201.779 16.2122C201.747 16.9498 201.95 17.6784 202.358 18.2937C202.766 18.8597 203.297 19.3258 203.912 19.657C204.617 20.0472 205.352 20.3805 206.11 20.6537L207.899 21.284C208.547 21.4926 209.146 21.8318 209.658 22.2808C209.839 22.4608 209.983 22.6756 210.08 22.9123C210.177 23.149 210.225 23.4029 210.222 23.6587C210.23 23.9497 210.168 24.2383 210.04 24.5C209.913 24.7616 209.723 24.9885 209.489 25.1611C208.883 25.5756 208.155 25.7743 207.422 25.7255C206.73 25.7535 206.043 25.5993 205.429 25.2784C204.934 24.9987 204.524 24.5911 204.241 24.0984C203.978 23.65 203.816 23.1499 203.765 22.6326H201.09C201.13 23.524 201.381 24.3932 201.823 25.1685C202.308 25.9957 203.017 26.669 203.868 27.1107C204.941 27.6416 206.131 27.8936 207.327 27.8436C208.794 27.9459 210.247 27.505 211.409 26.605C211.869 26.2149 212.234 25.7264 212.479 25.1758C212.724 24.6252 212.842 24.0265 212.824 23.4241C212.877 22.7079 212.719 21.9918 212.369 21.3646Z" fill="white"/>
<path d="M222.001 14.4462V12.3281H214.672V14.4462H216.746V22.9554C216.705 23.9249 216.819 24.8948 217.083 25.8284C217.285 26.4228 217.588 26.9781 217.977 27.4701H220.982V27.3162C220.532 26.8139 220.17 26.239 219.912 25.6159C219.567 24.6229 219.415 23.573 219.465 22.523V14.4609L222.001 14.4462Z" fill="white"/>
<path d="M216.985 12.3281H216.794V9.70429H219.418V9.89485C219.416 10.5396 219.159 11.1574 218.703 11.6133C218.247 12.0692 217.629 12.3262 216.985 12.3281Z" fill="white"/>
<path d="M25.6358 35.1766L22.6602 35.1253L22.8287 25.7806C22.8327 25.3357 22.9262 24.8961 23.1038 24.4881C23.2813 24.0801 23.5392 23.7121 23.8621 23.406C24.5075 22.79 25.3667 22.4484 26.2588 22.4532L35.4569 22.6291L35.3762 25.6047L26.2148 25.4288C26.1604 25.4267 26.1063 25.4361 26.0558 25.4563C26.0053 25.4765 25.9596 25.5071 25.9216 25.5461C25.8474 25.6229 25.8055 25.7252 25.8044 25.8319L25.6358 35.1766Z" fill="white"/>
<path d="M4.36156 28.8178L2.55859 26.4505L14.5418 17.3477C15.646 16.5062 16.632 15.5202 17.4734 14.416L26.7888 2.125L29.1561 3.92065L19.8261 16.2263C18.8213 17.5421 17.6428 18.7157 16.3227 19.715L4.36156 28.8178Z" fill="white"/>
<path d="M11.5061 34.6875L8.93359 33.2216L13.2065 25.8338C16.2825 20.5136 20.7032 16.0955 26.0252 13.0225L33.6402 8.625L35.106 11.2049L27.491 15.6023C22.624 18.4186 18.5806 22.4619 15.7644 27.329L11.5061 34.6875Z" fill="white"/>
<path d="M0.69627 19.8606L0 16.9655L12.87 13.902C13.1292 13.8394 13.3657 13.7052 13.5523 13.5147C13.7389 13.3242 13.8682 13.0851 13.9254 12.8246L17.0989 -0.0234375L19.9866 0.709478L16.8131 13.5575C16.6223 14.3439 16.2183 15.0625 15.6454 15.634C15.0726 16.2056 14.3531 16.608 13.5663 16.797L0.69627 19.8606Z" fill="white"/>
<path d="M12.0789 13.4423C11.8986 13.4433 11.7197 13.411 11.5512 13.3471L2.96875 10.0929L4.02415 7.31517L9.68225 9.45528L7.71804 3.55532L10.5471 2.61719L13.4788 11.4855C13.5582 11.7087 13.5823 11.9479 13.549 12.1825C13.5158 12.4171 13.4261 12.6401 13.2878 12.8325C13.1494 13.0249 12.9665 13.1809 12.7547 13.2871C12.5429 13.3933 12.3085 13.4466 12.0716 13.4423H12.0789Z" fill="white"/>
</g>
<defs>
<clipPath id="clip0_5079_26364">
<rect width="222" height="35.1799" fill="white"/>
</clipPath>
</defs>
</svg>
