<svg width="22" height="22" viewBox="0 0 22 22" fill="none" xmlns="http://www.w3.org/2000/svg">
<path d="M10.125 7.5H14.5M14.5 11H10.125M14.5 14.5H10.125M5.75 18H16.25C16.7141 18 17.1592 17.8156 17.4874 17.4874C17.8156 17.1592 18 16.7141 18 16.25V5.75C18 5.28587 17.8156 4.84075 17.4874 4.51256C17.1592 4.18437 16.7141 4 16.25 4H5.75C5.28587 4 4.84075 4.18437 4.51256 4.51256C4.18437 4.84075 4 5.28587 4 5.75V16.25C4 16.7141 4.18437 17.1592 4.51256 17.4874C4.84075 17.8156 5.28587 18 5.75 18Z" stroke="#044D5E" stroke-width="1.5" stroke-linecap="round" stroke-linejoin="round"/>
</svg>
