<svg width="23" height="23" viewBox="0 0 23 23" fill="none" xmlns="http://www.w3.org/2000/svg">
<path d="M5.37282 6.14555V16.3274H16.8274V17.6001H5.37282C5.03528 17.6001 4.71155 17.466 4.47287 17.2273C4.23419 16.9886 4.1001 16.6649 4.1001 16.3274V6.14555H5.37282ZM13.6456 8.05464H17.1456L13.6456 4.55464V8.05464ZM7.91828 3.6001H14.2819L18.1001 7.41828V13.7819C18.1001 14.1195 17.966 14.4432 17.7273 14.6819C17.4886 14.9206 17.1649 15.0546 16.8274 15.0546H7.91828C7.58073 15.0546 7.25701 14.9206 7.01833 14.6819C6.77964 14.4432 6.64555 14.1195 6.64555 13.7819V4.87282C6.64555 4.53528 6.77964 4.21155 7.01833 3.97287C7.25701 3.73419 7.58073 3.6001 7.91828 3.6001ZM7.91828 4.87282V13.7819H16.8274V9.32737H12.3728V4.87282H7.91828Z" fill="#044D5E"/>
</svg>
