<svg width="22" height="22" viewBox="0 0 22 22" fill="none" xmlns="http://www.w3.org/2000/svg">
<path d="M18.3322 1.83301H9.16553C8.43618 1.83301 7.73671 2.12274 7.22098 2.63846C6.70526 3.15419 6.41553 3.85366 6.41553 4.58301V10.9997C6.41553 11.729 6.70526 12.4285 7.22098 12.9442C7.73671 13.4599 8.43618 13.7497 9.16553 13.7497H18.3322C19.0615 13.7497 19.761 13.4599 20.2767 12.9442C20.7925 12.4285 21.0822 11.729 21.0822 10.9997V4.58301C21.0822 3.85366 20.7925 3.15419 20.2767 2.63846C19.761 2.12274 19.0615 1.83301 18.3322 1.83301ZM19.2489 10.9997C19.2489 11.2428 19.1523 11.4759 18.9804 11.6479C18.8085 11.8198 18.5753 11.9163 18.3322 11.9163H9.16553C8.92241 11.9163 8.68925 11.8198 8.51735 11.6479C8.34544 11.4759 8.24886 11.2428 8.24886 10.9997V4.58301C8.24886 4.33989 8.34544 4.10674 8.51735 3.93483C8.68925 3.76292 8.92241 3.66634 9.16553 3.66634H18.3322C18.5753 3.66634 18.8085 3.76292 18.9804 3.93483C19.1523 4.10674 19.2489 4.33989 19.2489 4.58301V10.9997ZM16.0405 7.33301C15.7013 7.33503 15.3749 7.46236 15.1239 7.69051C14.9267 7.51135 14.6818 7.39329 14.4189 7.3507C14.156 7.30811 13.8863 7.3428 13.6427 7.45058C13.3991 7.55835 13.1921 7.73455 13.0467 7.95778C12.9014 8.181 12.824 8.44164 12.824 8.70801C12.824 8.97438 12.9014 9.23501 13.0467 9.45824C13.1921 9.68146 13.3991 9.85767 13.6427 9.96544C13.8863 10.0732 14.156 10.1079 14.4189 10.0653C14.6818 10.0227 14.9267 9.90467 15.1239 9.72551C15.2894 9.87596 15.4891 9.98375 15.7058 10.0395C15.9224 10.0953 16.1493 10.0974 16.367 10.0456C16.5846 9.99386 16.7863 9.88976 16.9546 9.74239C17.1228 9.59502 17.2526 9.40882 17.3327 9.19993C17.4127 8.99105 17.4405 8.76579 17.4138 8.5437C17.3871 8.32162 17.3066 8.1094 17.1793 7.92547C17.052 7.74154 16.8817 7.59144 16.6833 7.4882C16.4848 7.38495 16.2642 7.33168 16.0405 7.33301ZM14.6655 15.583C14.4224 15.583 14.1893 15.6796 14.0173 15.8515C13.8454 16.0234 13.7489 16.2566 13.7489 16.4997V17.4163C13.7489 17.6595 13.6523 17.8926 13.4804 18.0645C13.3085 18.2364 13.0753 18.333 12.8322 18.333H3.66553C3.42241 18.333 3.18925 18.2364 3.01735 18.0645C2.84544 17.8926 2.74886 17.6595 2.74886 17.4163V13.7497H3.66553C3.90864 13.7497 4.1418 13.6531 4.31371 13.4812C4.48562 13.3093 4.58219 13.0761 4.58219 12.833C4.58219 12.5899 4.48562 12.3567 4.31371 12.1848C4.1418 12.0129 3.90864 11.9163 3.66553 11.9163H2.74886V10.9997C2.74886 10.7566 2.84544 10.5234 3.01735 10.3515C3.18925 10.1796 3.42241 10.083 3.66553 10.083C3.90864 10.083 4.1418 9.98643 4.31371 9.81452C4.48562 9.64261 4.58219 9.40946 4.58219 9.16634C4.58219 8.92323 4.48562 8.69007 4.31371 8.51816C4.1418 8.34625 3.90864 8.24967 3.66553 8.24967C2.93618 8.24967 2.23671 8.53941 1.72098 9.05513C1.20526 9.57086 0.915527 10.2703 0.915527 10.9997V17.4163C0.915527 18.1457 1.20526 18.8452 1.72098 19.3609C2.23671 19.8766 2.93618 20.1663 3.66553 20.1663H12.8322C13.5615 20.1663 14.261 19.8766 14.7767 19.3609C15.2925 18.8452 15.5822 18.1457 15.5822 17.4163V16.4997C15.5822 16.2566 15.4856 16.0234 15.3137 15.8515C15.1418 15.6796 14.9086 15.583 14.6655 15.583ZM5.49886 16.4997H6.41553C6.65864 16.4997 6.8918 16.4031 7.06371 16.2312C7.23562 16.0593 7.33219 15.8261 7.33219 15.583C7.33219 15.3399 7.23562 15.1067 7.06371 14.9348C6.8918 14.7629 6.65864 14.6663 6.41553 14.6663H5.49886C5.25575 14.6663 5.02259 14.7629 4.85068 14.9348C4.67877 15.1067 4.58219 15.3399 4.58219 15.583C4.58219 15.8261 4.67877 16.0593 4.85068 16.2312C5.02259 16.4031 5.25575 16.4997 5.49886 16.4997Z" fill="#044D5E"/>
</svg>
