<svg width="24" height="24" viewBox="0 0 24 24" fill="none" xmlns="http://www.w3.org/2000/svg">
<g clip-path="url(#clip0_5220_55909)">
<path d="M19.7722 9.21673C18.4614 9.99908 17.6518 11.3403 17.6518 12.8305C17.6518 14.5069 18.6927 16.0344 20.2734 16.6677C19.965 17.6363 19.5024 18.5305 18.924 19.3501C18.0758 20.505 17.1891 21.6971 15.8783 21.6971C14.5674 21.6971 14.1819 20.952 12.6397 20.952C11.1361 20.952 10.5963 21.7344 9.36259 21.7344C8.12886 21.7344 7.28067 20.654 6.31681 19.3128C5.04452 17.4501 4.31199 15.2893 4.27344 13.0167C4.27344 9.32849 6.74091 7.35398 9.20838 7.35398C10.5192 7.35398 11.5987 8.17359 12.4084 8.17359C13.1795 8.17359 14.4132 7.31673 15.8783 7.31673C17.4204 7.27947 18.8855 7.98732 19.7722 9.21673ZM15.1843 5.75202C15.8397 5.00692 16.1867 4.07555 16.2252 3.10692C16.2252 2.99516 16.2252 2.84614 16.1867 2.73438C15.0686 2.84614 14.0277 3.36771 13.2951 4.18732C12.6397 4.89516 12.2542 5.78928 12.2156 6.7579C12.2156 6.86967 12.2156 6.98143 12.2542 7.0932C12.3313 7.0932 12.4469 7.13045 12.524 7.13045C13.565 7.05594 14.5289 6.53438 15.1843 5.75202Z" fill="black"/>
</g>
<defs>
<clipPath id="clip0_5220_55909">
<rect width="16" height="19" fill="white" transform="translate(4.27344 2.73438)"/>
</clipPath>
</defs>
</svg>
