<svg width="20" height="20" viewBox="0 0 20 20" fill="none" xmlns="http://www.w3.org/2000/svg">
<path d="M18.8249 8.23735H18.1V8.2H10V11.8H15.0863C14.3443 13.8956 12.3503 15.4 10 15.4C7.01785 15.4 4.6 12.9822 4.6 10C4.6 7.01785 7.01785 4.6 10 4.6C11.3765 4.6 12.6289 5.1193 13.5824 5.96755L16.1281 3.4219C14.5207 1.92385 12.3706 1 10 1C5.02975 1 1 5.02975 1 10C1 14.9703 5.02975 19 10 19C14.9703 19 19 14.9703 19 10C19 9.39655 18.9379 8.8075 18.8249 8.23735Z" fill="#FFC107"/>
<path d="M2.03906 5.81095L4.99601 7.9795C5.79611 5.9986 7.73381 4.6 10.0014 4.6C11.3779 4.6 12.6303 5.1193 13.5838 5.96755L16.1295 3.4219C14.5221 1.92385 12.372 1 10.0014 1C6.54446 1 3.54656 2.95165 2.03906 5.81095Z" fill="#FF3D00"/>
<path d="M9.99662 19.0038C12.3213 19.0038 14.4336 18.1142 16.0307 16.6674L13.2452 14.3103C12.3416 14.9948 11.2184 15.4038 9.99662 15.4038C7.65573 15.4038 5.66807 13.9112 4.91927 11.8281L1.98438 14.0894C3.47387 17.004 6.49878 19.0038 9.99662 19.0038Z" fill="#4CAF50"/>
<path d="M18.8198 8.20312H18.4858H18.1562H18.1H10V11.8031H15.0864C14.73 12.8098 14.0824 13.6778 13.2472 14.3101L13.2485 14.3092L16.0341 16.6663C15.837 16.8454 19 14.5031 19 10.0031C19 9.39968 18.9328 8.77328 18.8198 8.20312Z" fill="#1976D2"/>
</svg>
