<svg width="24" height="24" viewBox="0 0 24 24" fill="none" xmlns="http://www.w3.org/2000/svg">
<rect x="0.75" y="0.75" width="22.5" height="22.5" rx="11.25" stroke="black" stroke-width="1.5"/>
<path d="M8.47785 11.3278C9.35785 12.9 10.7756 14.1833 12.5051 14.9889L13.8495 13.7667C14.0145 13.6167 14.259 13.5667 14.4728 13.6333C15.1573 13.8389 15.8967 13.95 16.6545 13.95C16.9906 13.95 17.2656 14.2 17.2656 14.5056V16.4444C17.2656 16.75 16.9906 17 16.6545 17C10.9162 17 6.26562 12.7722 6.26562 7.55556C6.26562 7.25 6.54062 7 6.87674 7H9.01562C9.35174 7 9.62674 7.25 9.62674 7.55556C9.62674 8.25 9.74896 8.91667 9.97507 9.53889C10.0423 9.73333 9.9934 9.95 9.82229 10.1056L8.47785 11.3278Z" fill="#1C1C1C"/>
</svg>
